<svg width="18" height="18" viewBox="0 0 18 18" fill="none" xmlns="http://www.w3.org/2000/svg">
<g clip-path="url(#clip0_1139_390)">
<path d="M3.57743 9.4585L0.386719 12.7761" stroke="#1BA8CB" stroke-width="0.8" stroke-miterlimit="10" stroke-linecap="round" stroke-linejoin="round"/>
<path d="M8.47492 14.3562L5.21875 17.6124" stroke="#1BA8CB" stroke-width="0.8" stroke-miterlimit="10" stroke-linecap="round" stroke-linejoin="round"/>
<path d="M5.71996 10.4871L0.386719 15.9471" stroke="#1BA8CB" stroke-width="0.8" stroke-miterlimit="10" stroke-linecap="round" stroke-linejoin="round"/>
<path d="M7.43323 12.1382L1.95898 17.6124" stroke="#1BA8CB" stroke-width="0.8" stroke-miterlimit="10" stroke-linecap="round" stroke-linejoin="round"/>
<path d="M9.79526 10.0848L17.2249 2.65504C17.7437 2.13631 17.7437 1.29523 17.2249 0.776499C16.7062 0.257769 15.8651 0.257769 15.3464 0.776499L7.91669 8.20618L4.89757 8.1391L3.57812 9.45855L6.93266 11.0687L8.47574 14.3562L9.87349 12.9585L9.79526 10.0848Z" stroke="#09333D" stroke-width="0.8" stroke-miterlimit="10" stroke-linecap="round" stroke-linejoin="round"/>
<path d="M12.9415 3.18124L5.07022 1.83374L3.71484 3.18912L9.97993 6.14281" stroke="#09333D" stroke-width="0.8" stroke-miterlimit="10" stroke-linecap="round" stroke-linejoin="round"/>
<path d="M6.60352 2.09618L7.77953 0.920166" stroke="#09333D" stroke-width="0.8" stroke-miterlimit="10" stroke-linecap="round" stroke-linejoin="round"/>
<path d="M8.73828 2.45771L9.91429 1.28174" stroke="#09333D" stroke-width="0.8" stroke-miterlimit="10" stroke-linecap="round" stroke-linejoin="round"/>
<path d="M14.819 5.05811L16.1665 12.9294L14.8111 14.2848L11.8574 8.01967" stroke="#09333D" stroke-width="0.8" stroke-miterlimit="10" stroke-linecap="round" stroke-linejoin="round"/>
<path d="M15.9043 11.3969L17.0803 10.2209" stroke="#09333D" stroke-width="0.8" stroke-miterlimit="10" stroke-linecap="round" stroke-linejoin="round"/>
<path d="M15.543 9.26073L16.719 8.08472" stroke="#09333D" stroke-width="0.8" stroke-miterlimit="10" stroke-linecap="round" stroke-linejoin="round"/>
</g>
<defs>
<clipPath id="clip0_1139_390">
<rect width="18" height="18" fill="white"/>
</clipPath>
</defs>
</svg>
