<svg width="69" height="70" viewBox="0 0 69 70" fill="none" xmlns="http://www.w3.org/2000/svg">
<g clip-path="url(#clip0_1139_499)">
<path d="M58.3942 25.0775C54.1699 21.1933 49.0978 20.1865 43.3436 22.0551L43.3168 22.0638L40.844 23.0243L39.0675 21.9764C38.4509 21.6004 30.9707 17.4636 30.9199 17.4445C27.5757 15.8587 25.4198 15.5815 23.4965 16.4319C22.9352 16.684 22.3816 17.0553 21.8343 17.5836L19.7365 19.5569C19.5425 19.7417 19.4385 20.0205 19.4673 20.3424C19.4961 20.6642 19.6541 20.9634 19.8935 21.1471L28.3796 27.874L20.9114 30.9632C20.8875 30.9353 20.8453 30.897 20.8084 30.8748L16.966 27.9835C15.2015 26.6525 12.9428 26.5662 11.233 27.7497C10.9874 27.9171 10.9087 28.2738 11.0528 28.576L13.5884 33.9873L12.4805 34.3991L9.61313 30.8243C8.25139 29.1189 6.30765 28.3883 4.62829 28.9336C4.33003 29.0305 4.17936 29.3943 4.29192 29.7409L6.55566 36.6202L8.03818 41.1854C8.45353 42.4644 9.52182 43.3576 10.5845 43.3095L13.0782 43.3373L10.8163 49.2417C10.7369 49.4591 10.7652 49.7291 10.9178 49.9246C11.057 50.1245 11.2706 50.2289 11.4839 50.1953L13.7171 49.8369C14.1902 49.7709 14.6597 49.6525 15.1071 49.5073C15.9602 49.2302 16.7454 48.8356 17.4346 48.3326C18.1601 47.7999 18.6644 47.2352 18.9275 46.6597L20.5755 43.068L29.3208 42.1141L24.3579 56.4211C24.2423 56.7557 24.2699 57.1655 24.4432 57.5117C24.6148 57.857 24.8967 58.0803 25.2061 58.155L27.3554 58.6452C28.5393 58.9246 29.6873 58.8652 30.7298 58.5266C32.3138 58.0122 33.6688 56.8385 34.5622 55.1167L41.6105 40.7786L48.7097 40.0103L48.75 39.9972C49.4663 39.8522 50.1721 39.675 50.8492 39.4551C52.8806 38.7954 54.7741 37.7617 56.4918 36.3648C56.5007 36.3619 56.5079 36.3536 56.5134 36.3399C59.8524 33.2996 60.389 30.5753 60.2529 28.821C60.1452 27.3366 59.4468 25.9223 58.3937 25.0762L58.3942 25.0775ZM22.623 18.5854C23.0824 18.157 23.532 17.8357 24.0045 17.6303C25.6275 16.9116 27.5266 17.1845 30.5495 18.6133C31.0566 18.8852 38.2858 22.8941 38.5842 23.0765L38.6215 23.1L39.4001 23.563L29.6637 27.3189L20.8114 20.292L22.6217 18.5858L22.623 18.5854ZM16.3849 29.0113L19.6318 31.45L14.648 33.5229L12.3389 28.5802C13.6129 27.9392 15.1422 28.0886 16.3853 29.0127L16.3849 29.0113ZM17.8942 45.966C17.7202 46.3537 17.3211 46.7803 16.751 47.1927C15.8349 47.8748 14.6954 48.331 13.4704 48.5194L12.3179 48.7021L14.4962 42.9659L15.4056 40.5572L20.436 38.9934L20.4628 38.9847C20.6254 38.9319 20.8656 38.8896 21.0084 38.913C20.9956 39.0567 20.9438 39.4048 20.6072 40.074L20.599 40.0945L17.896 45.9669L17.8942 45.966ZM33.5627 54.3942C32.3054 56.7927 29.9947 57.9277 27.5043 57.3567L25.483 56.8948L30.7595 41.6647L30.7677 41.6443C30.7759 41.6238 30.7841 41.6033 30.7793 41.5885C30.8599 41.2831 30.9586 40.9882 31.0415 40.7356C31.1209 40.5182 31.1955 40.3365 31.2768 40.1705C31.6004 39.507 31.9974 39.1152 32.5254 38.9437L41.2044 36.1253C41.4757 36.0371 41.6839 36.2666 41.78 36.375C41.9522 36.5804 42.0891 36.9563 41.9635 37.3104L40.1111 41.0546C40.0457 41.1278 40.0029 41.2294 39.9749 41.3261L33.5609 54.3933L33.5627 54.3942ZM55.7723 35.3063C53.6159 37.0536 51.1595 38.2018 48.4972 38.7159L42.3262 39.3922L43.0197 37.9788L43.0447 37.9187C43.3374 37.1598 43.1673 36.22 42.626 35.5225C42.1386 34.8951 41.4388 34.6338 40.8168 34.8358L32.1379 37.6542C31.3385 37.9138 30.7206 38.4991 30.2795 39.4458C30.1767 39.6367 30.0838 39.8584 29.9932 40.1329C29.9225 40.3311 29.8526 40.5276 29.7871 40.7419L21.2282 41.6708L21.6308 40.7886C22.0175 39.9992 22.4761 38.873 21.8955 38.1006C21.3337 37.34 20.2677 37.652 20.0379 37.7266L14.7644 39.3694C14.6018 39.4222 14.4866 39.5294 14.4254 39.7067L13.5536 41.9978L10.4617 41.9711C10.4527 41.9741 10.442 41.9716 10.4296 41.9637C9.88747 42.0002 9.33522 41.4978 9.10965 40.8033L7.6219 36.222L5.59759 30.0342C6.69869 29.9217 7.86915 30.4847 8.77219 31.6053L11.917 35.5267C11.917 35.5267 11.9222 35.5428 11.9356 35.5384C11.9595 35.5663 11.9778 35.5767 12.0017 35.6046C12.0069 35.6207 12.0203 35.6164 12.0256 35.6325C12.0443 35.6443 12.0677 35.6708 12.0864 35.6826L12.1051 35.6943C12.1237 35.7061 12.1606 35.7282 12.1927 35.7356L12.2062 35.7313C12.2383 35.7387 12.2704 35.7461 12.3021 35.7521C12.311 35.7492 12.3217 35.7517 12.3342 35.7595C12.3663 35.7669 12.3797 35.7626 12.4066 35.7538L12.4334 35.7451C12.4603 35.7364 12.5059 35.7394 12.5341 35.7302L12.5475 35.7259L14.3906 35.0397L14.404 35.0354L29.786 28.6604L29.8128 28.6517L43.738 23.2741C47.6234 22.0123 51.144 22.1611 54.2712 23.6778C52.5922 24.8691 52.1093 27.2967 52.5635 29.4364C53.0296 31.6078 54.498 33.733 56.8228 34.1647C56.5499 34.5681 56.1875 34.9294 55.7732 35.309L55.7723 35.3063ZM59.1252 28.856C59.1982 29.863 58.9884 31.2931 57.843 32.9749C55.4305 33.0603 54.122 31.057 53.7339 29.2627C53.3335 27.3848 53.7873 25.1419 55.6811 24.4749C56.3825 24.9288 57.0771 25.4533 57.7241 26.0644C57.7427 26.0762 57.748 26.0923 57.7614 26.088C58.5191 26.7152 59.0302 27.7358 59.1243 28.8578L59.1252 28.856Z" fill="#1BA8CB"/>
<path d="M27.2795 31.9073C26.2101 32.2546 25.6093 33.4002 25.9557 34.4669C26.3021 35.5336 27.4613 36.1077 28.5308 35.7604C29.6002 35.4131 30.2009 34.2675 29.8545 33.2008C29.5081 32.1341 28.3623 31.5556 27.2795 31.9073ZM28.197 34.7326C27.7227 34.8866 27.1996 34.611 27.0429 34.1287C26.8863 33.6464 27.1477 33.1159 27.622 32.9619C28.0962 32.8079 28.6194 33.0836 28.776 33.5659C28.9327 34.0482 28.6847 34.5743 28.197 34.7326Z" fill="#1BA8CB"/>
<path d="M32.5861 30.1835C31.5167 30.5308 30.9159 31.6764 31.2624 32.7431C31.6088 33.8098 32.768 34.3839 33.8374 34.0366C34.9068 33.6893 35.5076 32.5437 35.1612 31.477C34.8147 30.4102 33.669 29.8318 32.5861 30.1835ZM33.5036 33.0088C33.0294 33.1628 32.5062 32.8872 32.3496 32.4049C32.1929 31.9226 32.4544 31.3921 32.9286 31.2381C33.4029 31.0841 33.926 31.3597 34.0827 31.8421C34.2393 32.3244 33.9913 32.8504 33.5036 33.0088Z" fill="#1BA8CB"/>
<path d="M37.881 28.4645C36.8116 28.8118 36.2109 29.9574 36.5573 31.0241C36.9037 32.0908 38.0629 32.6649 39.1323 32.3176C40.2017 31.9703 40.8025 30.8247 40.4561 29.758C40.1097 28.6912 38.9505 28.1172 37.881 28.4645ZM38.7986 31.2898C38.3243 31.4438 37.8011 31.1682 37.6445 30.6859C37.4879 30.2036 37.7493 29.6731 38.2235 29.5191C38.6978 29.3651 39.221 29.6407 39.3776 30.1231C39.5342 30.6054 39.2728 31.1358 38.7986 31.2898Z" fill="#1BA8CB"/>
<path d="M45.9103 25.8567C44.8409 26.204 44.2441 27.3617 44.5866 28.4164C44.9291 29.471 46.0922 30.0572 47.1616 29.7099C47.8522 29.4856 48.3708 28.9147 48.523 28.2311C48.6061 27.8878 48.5959 27.5317 48.4994 27.1888L48.4824 27.1364C48.1577 26.0908 46.9945 25.5047 45.9117 25.8563L45.9103 25.8567ZM47.416 27.4975C47.4709 27.6668 47.4812 27.8357 47.4325 28.0105C47.3546 28.3239 47.1352 28.5674 46.8369 28.6643C46.3627 28.8183 45.8395 28.5427 45.6829 28.0604C45.5262 27.578 45.7742 27.052 46.2619 26.8936C46.7227 26.7439 47.2242 26.9984 47.4077 27.472L47.416 27.4975Z" fill="#1BA8CB"/>
</g>
<defs>
<clipPath id="clip0_1139_499">
<rect width="54.3833" height="54.3833" fill="white" transform="translate(0 17.6788) rotate(-17.991)"/>
</clipPath>
</defs>
</svg>
