<svg width="104" height="122" viewBox="0 0 104 122" fill="none" xmlns="http://www.w3.org/2000/svg">
<path d="M25.6378 76.9028C25.6213 76.8905 25.604 76.8747 25.5875 76.8625L25.5645 76.8934C24.7243 76.782 23.8697 76.7188 23 76.7188C22.1303 76.7188 21.2757 76.782 20.4355 76.8934L20.4125 76.8625C20.396 76.8747 20.3787 76.8898 20.3622 76.9028C10.9056 78.1943 3.59375 86.3198 3.59375 96.125V96.4132L19.159 112.656H18.6875C17.4987 112.656 16.5312 113.624 16.5312 114.812V119.125C16.5312 120.314 17.4987 121.281 18.6875 121.281H27.3125C28.5013 121.281 29.4688 120.314 29.4688 119.125V114.812C29.4688 113.624 28.5013 112.656 27.3125 112.656H26.841L42.2064 96.6224L42.4062 96.4132V96.125C42.4062 86.3198 35.0944 78.1943 25.6378 76.9028ZM40.9141 94.7615C39.1913 93.8092 35.8577 92.5995 32.0987 94.5301C33.3917 88.3208 30.1659 82.0131 27.4368 78.7111C34.781 80.5828 40.3283 86.9904 40.9141 94.7615ZM22.7607 112.656L17.7567 100.648C18.671 100.072 20.6828 99 23 99C25.3165 99 27.329 100.072 28.2433 100.648L23.2393 112.656H22.7607ZM14.5101 96.5922L15.3575 98.6262C11.8759 96.5836 8.61637 96.1696 5.57247 96.13C7.09191 95.2266 10.6174 93.7783 14.5101 96.5922ZM15.9102 96.2184C16.5262 95.4372 18.6379 93.25 23 93.25C26.7677 93.25 29.2668 95.4508 30.0667 96.2709L28.8039 99.3019C27.674 98.6169 25.5243 97.5625 23 97.5625C20.475 97.5625 18.326 98.6169 17.1954 99.3019L15.9102 96.2184ZM31.4899 96.5922C35.4293 93.7409 38.9376 95.2143 40.4433 96.1293C37.3951 96.1674 34.1298 96.5793 30.6425 98.6262L31.4899 96.5922ZM25.0499 78.277C27.6913 80.549 32.3797 87.8148 30.5749 94.7623C29.3042 93.618 26.7131 91.8125 23 91.8125C18.957 91.8125 16.5758 93.4778 15.3985 94.6451C13.6843 87.7163 18.3267 80.5332 20.9501 78.277C21.6236 78.2001 22.3064 78.1562 23 78.1562C23.6936 78.1562 24.3764 78.2001 25.0499 78.277ZM18.5624 78.7104C15.8369 82.0095 12.6169 88.3108 13.9064 94.533C10.1452 92.5981 6.81016 93.8077 5.08588 94.7608C5.67166 86.9904 11.219 80.5827 18.5624 78.7104ZM6.72678 97.6056C10.051 97.7788 13.0647 98.558 16.3487 101.006L21.2031 112.656H21.1507L6.72678 97.6056ZM28.0312 114.812V119.125C28.0312 119.522 27.7085 119.844 27.3125 119.844H18.6875C18.2915 119.844 17.9688 119.522 17.9688 119.125V114.812C17.9688 114.416 18.2915 114.094 18.6875 114.094H27.3125C27.7085 114.094 28.0312 114.416 28.0312 114.812ZM24.7969 112.656L29.6506 101.006C32.9346 98.558 35.949 97.7788 39.2732 97.6049L24.8493 112.656H24.7969Z" fill="#1BA8CB"/>
<path d="M19.4062 115.531H26.5938V116.969H19.4062V115.531Z" fill="#1BA8CB"/>
<path d="M88.0644 30.7065C88.0514 30.6969 88.0379 30.6846 88.025 30.675L88.007 30.6992C87.3494 30.612 86.6806 30.5625 86 30.5625C85.3194 30.5625 84.6506 30.612 83.993 30.6992L83.975 30.675C83.9621 30.6846 83.9486 30.6964 83.9356 30.7065C76.5348 31.7173 70.8125 38.0764 70.8125 45.75V45.9756L82.994 58.6875H82.625C81.6946 58.6875 80.9375 59.4446 80.9375 60.375V63.75C80.9375 64.6804 81.6946 65.4375 82.625 65.4375H89.375C90.3054 65.4375 91.0625 64.6804 91.0625 63.75V60.375C91.0625 59.4446 90.3054 58.6875 89.375 58.6875H89.006L101.031 46.1392L101.188 45.9756V45.75C101.188 38.0764 95.4652 31.7173 88.0644 30.7065ZM100.02 44.6829C98.6714 43.9376 96.0626 42.9909 93.1207 44.5018C94.1326 39.6424 91.6081 34.7059 89.4723 32.1217C95.2199 33.5865 99.5613 38.6012 100.02 44.6829ZM85.8127 58.6875L81.8966 49.2898C82.6121 48.8392 84.1865 48 86 48C87.8129 48 89.3879 48.8392 90.1034 49.2898L86.1873 58.6875H85.8127ZM79.3558 46.1156L80.0189 47.7075C77.2942 46.1089 74.7432 45.7849 72.3611 45.7539C73.5502 45.0469 76.3092 43.9134 79.3558 46.1156ZM80.4515 45.8231C80.9336 45.2117 82.5862 43.5 86 43.5C88.9486 43.5 90.9044 45.2224 91.5305 45.8642L90.5422 48.2362C89.6579 47.7002 87.9755 46.875 86 46.875C84.0239 46.875 82.3421 47.7002 81.4572 48.2362L80.4515 45.8231ZM92.6443 46.1156C95.7273 43.8842 98.4729 45.0373 99.6513 45.7534C97.2658 45.7832 94.7103 46.1055 91.9811 47.7075L92.6443 46.1156ZM87.6042 31.782C89.6714 33.5601 93.3406 39.2464 91.9282 44.6835C90.9337 43.788 88.9059 42.375 86 42.375C82.8359 42.375 80.9724 43.6783 80.051 44.5918C78.7094 39.1693 82.3426 33.5477 84.3958 31.782C84.9228 31.7218 85.4572 31.6875 86 31.6875C86.5428 31.6875 87.0772 31.7218 87.6042 31.782ZM82.5271 32.1212C80.3941 34.7031 77.8741 39.6345 78.8832 44.5041C75.9397 42.9898 73.3297 43.9365 71.9803 44.6824C72.4387 38.6012 76.7801 33.5865 82.5271 32.1212ZM73.2644 46.9088C75.866 47.0443 78.2246 47.6541 80.7946 49.5699L84.5938 58.6875H84.5527L73.2644 46.9088ZM89.9375 60.375V63.75C89.9375 64.0605 89.6849 64.3125 89.375 64.3125H82.625C82.3151 64.3125 82.0625 64.0605 82.0625 63.75V60.375C82.0625 60.0645 82.3151 59.8125 82.625 59.8125H89.375C89.6849 59.8125 89.9375 60.0645 89.9375 60.375ZM87.4062 58.6875L91.2048 49.5699C93.7749 47.6541 96.134 47.0443 98.7356 46.9082L87.4473 58.6875H87.4062Z" fill="#1BA8CB"/>
<path d="M83.1875 60.9375H88.8125V62.0625H83.1875V60.9375Z" fill="#1BA8CB"/>
<path d="M20.7203 0.58875C20.7095 0.580781 20.6983 0.570469 20.6875 0.5625L20.6725 0.582656C20.1245 0.51 19.5672 0.46875 19 0.46875C18.4328 0.46875 17.8755 0.51 17.3275 0.582656L17.3125 0.5625C17.3017 0.570469 17.2905 0.580313 17.2797 0.58875C11.1123 1.43109 6.34375 6.73031 6.34375 13.125V13.313L16.495 23.9062H16.1875C15.4122 23.9062 14.7812 24.5372 14.7812 25.3125V28.125C14.7812 28.9003 15.4122 29.5312 16.1875 29.5312H21.8125C22.5878 29.5312 23.2188 28.9003 23.2188 28.125V25.3125C23.2188 24.5372 22.5878 23.9062 21.8125 23.9062H21.505L31.5259 13.4494L31.6562 13.313V13.125C31.6562 6.73031 26.8877 1.43109 20.7203 0.58875ZM30.6831 12.2358C29.5595 11.6147 27.3855 10.8258 24.9339 12.0848C25.7772 8.03531 23.6734 3.92156 21.8936 1.76813C26.6833 2.98875 30.3011 7.16766 30.6831 12.2358ZM18.8439 23.9062L15.5805 16.0748C16.1767 15.6994 17.4888 15 19 15C20.5108 15 21.8233 15.6994 22.4195 16.0748L19.1561 23.9062H18.8439ZM13.4631 13.4297L14.0158 14.7562C11.7452 13.4241 9.61937 13.1541 7.63422 13.1283C8.62516 12.5391 10.9244 11.5945 13.4631 13.4297ZM14.3763 13.1859C14.778 12.6764 16.1552 11.25 19 11.25C21.4572 11.25 23.087 12.6853 23.6087 13.2202L22.7852 15.1969C22.0483 14.7502 20.6462 14.0625 19 14.0625C17.3533 14.0625 15.9517 14.7502 15.2144 15.1969L14.3763 13.1859ZM24.5369 13.4297C27.1061 11.5702 29.3941 12.5311 30.3761 13.1278C28.3881 13.1527 26.2586 13.4212 23.9842 14.7562L24.5369 13.4297ZM20.3369 1.485C22.0595 2.96672 25.1172 7.70531 23.9402 12.2362C23.1114 11.49 21.4216 10.3125 19 10.3125C16.3633 10.3125 14.8103 11.3986 14.0425 12.1598C12.9245 7.64109 15.9522 2.95641 17.6631 1.485C18.1023 1.43484 18.5477 1.40625 19 1.40625C19.4523 1.40625 19.8977 1.43484 20.3369 1.485ZM16.1059 1.76766C14.3284 3.91922 12.2284 8.02875 13.0694 12.0867C10.6164 10.8248 8.44141 11.6137 7.31688 12.2353C7.69891 7.16766 11.3167 2.98875 16.1059 1.76766ZM8.38703 14.0906C10.555 14.2036 12.5205 14.7117 14.6622 16.3083L17.8281 23.9062H17.7939L8.38703 14.0906ZM22.2812 25.3125V28.125C22.2812 28.3838 22.0708 28.5938 21.8125 28.5938H16.1875C15.9292 28.5938 15.7188 28.3838 15.7188 28.125V25.3125C15.7188 25.0537 15.9292 24.8438 16.1875 24.8438H21.8125C22.0708 24.8438 22.2812 25.0537 22.2812 25.3125ZM20.1719 23.9062L23.3373 16.3083C25.4791 14.7117 27.445 14.2036 29.613 14.0902L20.2061 23.9062H20.1719Z" fill="#1BA8CB"/>
<path d="M16.6562 25.7812H21.3438V26.7188H16.6562V25.7812Z" fill="#1BA8CB"/>
</svg>
