<svg width="60" height="60" viewBox="0 0 60 60" fill="none" xmlns="http://www.w3.org/2000/svg">
<g clip-path="url(#clip0_1139_583)">
<path d="M56.4077 44.7354H42.9372V41.8237H45.3396C45.8573 41.8237 46.2771 41.404 46.2771 40.8862C46.2771 40.3685 45.8573 39.9487 45.3396 39.9487H33.664V28.1963C34.3768 27.7399 34.9851 27.1342 35.4442 26.4234C36.4919 28.0451 38.3156 29.1205 40.3857 29.1205C42.4558 29.1205 44.2795 28.0452 45.3272 26.4234C46.3749 28.0451 48.1986 29.1205 50.2687 29.1205C53.5103 29.1205 56.1476 26.4832 56.1476 23.2416C56.1476 23.1342 56.1292 23.0277 56.0931 22.9266C54.2 17.6182 50.7645 13.0957 46.1585 9.8482C42.4211 7.21313 38.152 5.58621 33.664 5.06613V3.51281C33.664 1.76965 32.2458 0.351562 30.5028 0.351562C28.7597 0.351562 27.3415 1.76977 27.3415 3.51281V5.06613C22.8535 5.58621 18.5845 7.21313 14.847 9.8482C10.2408 13.0957 6.80549 17.6182 4.91232 22.9266C4.87623 23.0277 4.85783 23.1341 4.85783 23.2416C4.85783 26.4833 7.49514 29.1205 10.7369 29.1205C12.807 29.1205 14.6307 28.0452 15.6783 26.4234C16.726 28.0451 18.5497 29.1205 20.6198 29.1205C22.6899 29.1205 24.5136 28.0452 25.5613 26.4234C26.0205 27.1342 26.6288 27.7399 27.3415 28.1963V39.9487H23.0505C22.5328 39.9487 22.113 40.3685 22.113 40.8862C22.113 41.404 22.5328 41.8237 23.0505 41.8237H25.4527V44.7354H16.3213L5.88451 34.2986C5.27397 33.688 4.45986 33.3517 3.59209 33.3517C2.72432 33.3517 1.9101 33.6879 1.29955 34.2986C0.0355664 35.5627 0.0355664 37.6194 1.29955 38.8835L12.2285 49.8123C13.1623 50.7461 14.3054 51.2195 15.6258 51.2195H17.474L13.4194 58.2422C13.2519 58.5322 13.2519 58.8896 13.4194 59.1797C13.5869 59.4697 13.8963 59.6484 14.2313 59.6484H18.6406C18.9755 59.6484 19.285 59.4697 19.4525 59.1797L24.0483 51.2195H25.4528V58.7109C25.4528 59.2287 25.8726 59.6484 26.3903 59.6484H41.9997C42.5174 59.6484 42.9372 59.2287 42.9372 58.7109V51.2195H44.1381L48.734 59.1797C48.9015 59.4697 49.2108 59.6484 49.5459 59.6484H53.9552C54.2901 59.6484 54.5996 59.4697 54.7671 59.1797C54.9346 58.8896 54.9346 58.5322 54.7671 58.2422L50.7125 51.2195H56.4078C58.1955 51.2195 59.6499 49.7651 59.6499 47.9774C59.6499 46.1897 58.1955 44.7353 56.4078 44.7353L56.4077 44.7354ZM26.6108 24.1789H34.3948C33.9715 25.9358 32.3878 27.2454 30.5028 27.2454C28.6178 27.2454 27.034 25.9358 26.6108 24.1789ZM36.3137 22.3039C35.9322 17.4906 35.2832 13.3744 34.4278 10.3584C34.0654 9.08109 33.6742 8.03133 33.2514 7.20492C38.0663 8.78133 42.205 14.4246 44.1474 22.3039H36.3135H36.3137ZM32.624 10.8702C33.4379 13.7394 34.0598 17.6768 34.4328 22.3039H26.5728C26.9457 17.6768 27.5676 13.7394 28.3816 10.8702C29.3335 7.5143 30.2549 6.75902 30.5028 6.75902C30.7506 6.75902 31.672 7.5143 32.624 10.8702ZM27.754 7.20504C27.3312 8.03145 26.9402 9.08121 26.5777 10.3586C25.7222 13.3744 25.0733 17.4906 24.6919 22.3041H16.8581C18.8005 14.4247 22.939 8.78133 27.754 7.20504ZM40.3857 27.2455C38.5007 27.2455 36.9169 25.9359 36.4937 24.1791H44.2778C43.8546 25.9359 42.2708 27.2455 40.3857 27.2455ZM50.2687 27.2455C48.3837 27.2455 46.7999 25.9359 46.3767 24.1791H54.1618C53.7387 25.9362 52.1538 27.2455 50.2687 27.2455ZM53.8413 22.3041H46.0773C44.918 17.3467 42.924 13.1066 40.286 10.0069C39.6469 9.25594 38.981 8.58492 38.2927 7.99477C45.2078 10.2436 50.9634 15.4174 53.8413 22.3041ZM29.2165 3.51281C29.2165 2.80359 29.7936 2.22656 30.5028 2.22656C31.212 2.22656 31.789 2.80359 31.789 3.51281V4.9152C31.3618 4.89527 30.933 4.88402 30.5028 4.88402C30.0726 4.88402 29.6439 4.89527 29.2165 4.9152V3.51281ZM22.7129 7.99465C22.0245 8.5848 21.3587 9.25582 20.7195 10.0068C18.0815 13.1065 16.0874 17.3466 14.9282 22.3039H7.1642C10.0421 15.4173 15.7978 10.2435 22.7129 7.99465ZM10.7369 27.2455C8.8517 27.2455 7.26686 25.9361 6.84369 24.1791H14.6289C14.2056 25.9359 12.6219 27.2455 10.7369 27.2455ZM20.6198 27.2455C18.7348 27.2455 17.151 25.9359 16.7278 24.1791H24.5119C24.0887 25.9359 22.5047 27.2455 20.6198 27.2455ZM29.2165 28.9758C29.6309 29.0687 30.0608 29.1205 30.5028 29.1205C30.9448 29.1205 31.3745 29.0687 31.789 28.9758V39.9486H29.2167L29.2165 28.9758ZM27.3277 41.8236H41.0621V44.7353H27.3277V41.8236ZM18.0992 57.7733H15.8551L19.6389 51.2194H21.8833L18.0992 57.7733ZM41.0621 57.7733H27.3277V51.2194H41.0621V57.7733ZM52.3312 57.7733H50.0871L46.303 51.2194H48.5473L52.3312 57.7733ZM56.4076 49.3444H15.6258C14.8093 49.3444 14.1317 49.0637 13.5543 48.4863L2.62541 37.5577C2.09232 37.0247 2.09232 36.1574 2.62541 35.6243C2.88182 35.3679 3.22506 35.2267 3.59209 35.2267C3.95912 35.2267 4.30236 35.3679 4.55865 35.6243L15.2701 46.3357C15.446 46.5115 15.6843 46.6103 15.933 46.6103H56.4077C57.1615 46.6103 57.7748 47.2235 57.7748 47.9774C57.7748 48.7313 57.1615 49.3445 56.4077 49.3445L56.4076 49.3444Z" fill="#1BA8CB"/>
</g>
<defs>
<clipPath id="clip0_1139_583">
<rect width="60" height="60" fill="white"/>
</clipPath>
</defs>
</svg>
