<svg width="50" height="50" viewBox="0 0 50 50" fill="none" xmlns="http://www.w3.org/2000/svg">
<g clip-path="url(#clip0_1351_222)">
<path d="M0.144539 35.1952C0.336037 34.8839 0.685081 34.7046 1.04977 34.7328L25.663 36.5799V34.2941L8.79094 33.1394C8.45525 33.1165 8.15503 32.9224 7.99634 32.6256C7.83765 32.3288 7.84337 31.971 8.01083 31.6792L25.7923 0.685859C26.0128 0.3021 26.4633 0.114417 26.8909 0.228095C27.3186 0.342155 27.6161 0.729347 27.6161 1.17185V5.34437L45.2519 33.889C45.4434 34.1988 45.4464 34.5894 45.2599 34.9022C45.0832 35.199 44.764 35.379 44.4214 35.379C44.4027 35.379 44.384 35.3783 44.3649 35.3771L27.6157 34.4162V36.7264L49.0967 38.3381C49.3931 38.3606 49.6632 38.5163 49.8303 38.7619C49.9977 39.0076 50.0443 39.3162 49.9565 39.6C49.9565 39.6 48.7389 43.3216 48.7385 43.3228C46.9772 47.3934 42.9718 50.0233 38.5342 50.0233H14.7533C10.8814 50.0233 7.2334 47.9637 5.23259 44.6484L0.140343 36.2114C-0.0484848 35.8986 -0.0465775 35.5065 0.144539 35.1952ZM25.663 4.83625L10.4816 31.2973L25.663 32.3361V4.83625ZM27.6161 9.06027V32.4596L42.6045 33.3199L27.6161 9.06027ZM6.90495 43.6394C8.55405 46.3722 11.5616 48.0702 14.7533 48.0702H38.5342C41.7168 48.0702 44.6297 46.4291 46.2891 43.7931L21.0361 41.8186C20.4986 41.7767 20.0966 41.3067 20.1385 40.7688C20.1809 40.2313 20.6501 39.8304 21.1883 39.8716L47.1958 41.9049C47.2302 41.8053 47.263 41.7053 47.2939 41.6054L47.7291 40.1943L2.79042 36.8221L3.80017 38.4957L10.0883 38.9897C10.6258 39.0316 11.0275 39.502 10.9852 40.0395C10.9432 40.5773 10.4732 40.9786 9.93535 40.9367L5.04147 40.5522L6.90495 43.6394Z" fill="#1BA8CB"/>
<path d="M16.1535 41.4219C16.2168 41.4219 16.2813 41.4158 16.3438 41.4032C16.4064 41.3906 16.4678 41.3712 16.5262 41.3468C16.5849 41.3223 16.6418 41.2918 16.6952 41.2567C16.7482 41.2216 16.7989 41.1804 16.8436 41.1358C16.8886 41.0908 16.9298 41.0408 16.9649 40.9874C17 40.9344 17.0301 40.8779 17.0545 40.8184C17.0789 40.7597 17.0976 40.6983 17.1102 40.6357C17.1232 40.5731 17.1289 40.5087 17.1289 40.4453C17.1289 40.382 17.1232 40.3172 17.1102 40.255C17.0976 40.1924 17.0789 40.1306 17.0545 40.0723C17.0301 40.0128 17 39.9559 16.9649 39.9033C16.9298 39.8495 16.8886 39.7999 16.8436 39.7549C16.7989 39.7099 16.7482 39.6691 16.6952 39.634C16.6418 39.5989 16.5849 39.5683 16.5262 39.5439C16.4678 39.5195 16.4064 39.5001 16.3438 39.4882C16.0265 39.4238 15.6896 39.5283 15.4619 39.7549C15.4169 39.7999 15.3761 39.8495 15.341 39.9033C15.3055 39.9559 15.2753 40.0128 15.2509 40.0723C15.2265 40.131 15.2078 40.1924 15.1952 40.255C15.1826 40.3176 15.1769 40.382 15.1769 40.4453C15.1769 40.5087 15.1826 40.5731 15.1952 40.6357C15.2078 40.6983 15.2265 40.7597 15.2509 40.8184C15.2753 40.8779 15.3055 40.9344 15.341 40.9874C15.3768 41.0408 15.4169 41.0908 15.4619 41.1358C15.6446 41.3174 15.8956 41.4219 16.1535 41.4219Z" fill="#1BA8CB"/>
</g>
<defs>
<clipPath id="clip0_1351_222">
<rect width="50" height="50" fill="white" transform="matrix(-1 0 0 1 50 0)"/>
</clipPath>
</defs>
</svg>
