<svg width="60" height="60" viewBox="0 0 60 60" fill="none" xmlns="http://www.w3.org/2000/svg">
<g clip-path="url(#clip0_1139_580)">
<path d="M5.4792 35.04H11.694L21.7596 19.9584C22.6225 18.6631 23.8391 17.6427 25.2648 17.0184C25.289 16.3391 25.3904 15.6647 25.5672 15.0084H22.9044C22.6424 14.9957 22.3954 14.8826 22.2145 14.6928C22.0336 14.5029 21.9327 14.2506 21.9327 13.9884C21.9327 13.7261 22.0336 13.4739 22.2145 13.284C22.3954 13.0941 22.6424 12.9811 22.9044 12.9684H26.4C27.1814 11.5642 28.3236 10.3941 29.7085 9.57915C31.0935 8.76419 32.671 8.33391 34.278 8.33277H44.3808C45.7908 8.33457 47.1637 8.78463 48.3011 9.61791C49.4386 10.4512 50.2816 11.6245 50.7084 12.9684H52.3488C53.688 13.0116 53.706 14.9628 52.3488 15.0084H51.0168V17.3496C51.0163 17.4226 51.0082 17.4954 50.9928 17.5668C52.4586 18.4844 53.5935 19.8455 54.2328 21.4524L59.9268 35.6844C59.9749 35.805 59.9997 35.9337 60 36.0636V44.5344C59.9985 45.8835 59.4997 47.1848 58.5992 48.1894C57.6986 49.194 56.4594 49.8315 55.1184 49.98C53.5224 59.9988 39.2496 60.0336 37.6152 50.0136H23.3844C23.0719 52.1104 22.0168 54.0253 20.411 55.4095C18.8053 56.7937 16.7558 57.5551 14.6358 57.5551C12.5158 57.5551 10.4663 56.7937 8.86058 55.4095C7.25484 54.0253 6.19966 52.1104 5.8872 50.0136C2.7324 50.214 -0.0132027 47.7192 -3.8147e-06 44.5344V40.5228C0.00063324 39.0695 0.577991 37.6758 1.6053 36.6478C2.63261 35.6198 4.02589 35.0416 5.4792 35.04ZM27.372 16.3296H31.77V15.0096H27.7032C27.5498 15.4377 27.4389 15.8798 27.372 16.3296ZM43.1616 16.3296V15.0096H33.8112V16.3296H43.1616ZM44.3808 10.3716H34.2756C33.2347 10.3715 32.2069 10.6045 31.2679 11.0537C30.3289 11.5029 29.5024 12.1567 28.8492 12.9672H48.5172C48.141 12.1897 47.5536 11.534 46.822 11.0749C46.0905 10.6159 45.2444 10.3721 44.3808 10.3716ZM48.9768 16.3296V15.0096H45.2016V16.3296H48.9768ZM46.3644 55.5156C47.2587 55.5179 48.1447 55.3435 48.9714 55.0024C49.7982 54.6612 50.5493 54.1601 51.1817 53.5277C51.8141 52.8953 52.3153 52.1441 52.6564 51.3174C52.9976 50.4907 53.172 49.6047 53.1696 48.7104C52.7952 39.6828 39.9312 39.6864 39.558 48.7104C39.5556 49.6048 39.7301 50.4909 40.0713 51.3177C40.4125 52.1445 40.9138 52.8957 41.5463 53.5281C42.1788 54.1605 42.9301 54.6617 43.757 55.0027C44.5838 55.3438 45.47 55.5181 46.3644 55.5156ZM14.6352 55.5156C15.5295 55.5179 16.4155 55.3435 17.2422 55.0024C18.069 54.6612 18.8201 54.1601 19.4525 53.5277C20.0849 52.8953 20.5861 52.1441 20.9272 51.3174C21.2684 50.4907 21.4428 49.6047 21.4404 48.7104C21.0672 39.6852 8.2032 39.6852 7.8312 48.7104C7.82866 49.6051 8.00307 50.4914 8.34439 51.3184C8.68571 52.1455 9.18721 52.8968 9.82001 53.5293C10.4528 54.1618 11.2045 54.6629 12.0317 55.0038C12.8589 55.3446 13.7453 55.5186 14.64 55.5156H14.6352ZM2.0352 44.5344C2.0268 46.5744 3.8064 48.1344 5.8164 47.9736C6.9696 37.218 22.3128 37.2936 23.4456 47.9736H37.548C38.0556 41.796 44.7204 38.0136 50.268 40.7796C52.9908 42.0996 54.9144 44.892 55.1676 47.9112C55.9525 47.7597 56.6604 47.34 57.1698 46.7239C57.6793 46.1078 57.9586 45.3338 57.96 44.5344V36.2604L52.3344 22.2108C51.8838 21.0747 51.1013 20.1007 50.0891 19.4157C49.0769 18.7308 47.8818 18.3666 46.6596 18.3708H28.5396C27.5334 18.3694 26.5426 18.6171 25.6554 19.0918C24.7682 19.5665 24.0124 20.2533 23.4552 21.0912L13.086 36.63C12.9925 36.7685 12.8666 36.8819 12.7191 36.9604C12.5716 37.0388 12.4071 37.0799 12.24 37.08H5.4792C4.56683 37.0812 3.69225 37.4445 3.04745 38.09C2.40265 38.7354 2.04031 39.6104 2.04 40.5228L2.0352 44.5344ZM39.7008 19.0056H46.6608C47.7559 19.0018 48.8266 19.3281 49.7334 19.9421C50.6402 20.556 51.3409 21.429 51.744 22.4472L55.9752 33.0072C56.2524 33.648 55.728 34.4268 55.0272 34.4064H39.7008C39.4304 34.4061 39.1711 34.2985 38.9799 34.1073C38.7887 33.916 38.6811 33.6568 38.6808 33.3864V20.0256C38.6808 19.7551 38.7883 19.4956 38.9795 19.3043C39.1708 19.113 39.4303 19.0056 39.7008 19.0056ZM40.7208 32.3688H53.52L49.8504 23.2056C49.5975 22.5664 49.1577 22.0184 48.5884 21.633C48.0192 21.2477 47.347 21.043 46.6596 21.0456H40.7208V32.3688ZM23.9856 21.4428C24.4853 20.6915 25.1633 20.0758 25.959 19.6505C26.7547 19.2252 27.6434 19.0036 28.5456 19.0056H36.1344C36.4049 19.0056 36.6644 19.113 36.8556 19.3043C37.0469 19.4956 37.1544 19.7551 37.1544 20.0256V33.3888C37.1541 33.6592 37.0465 33.9185 36.8553 34.1097C36.6641 34.3009 36.4048 34.4085 36.1344 34.4088H17.2404C17.0557 34.4088 16.8745 34.3587 16.716 34.2637C16.5576 34.1688 16.4279 34.0327 16.3408 33.8698C16.2537 33.7069 16.2125 33.5235 16.2215 33.339C16.2305 33.1545 16.2894 32.976 16.392 32.8224L23.9856 21.4428ZM35.1144 32.3688V21.0456H28.542C27.9758 21.0444 27.4182 21.1833 26.9188 21.4501C26.4194 21.7169 25.9938 22.1031 25.68 22.5744L19.146 32.3688H35.1144ZM46.3644 42.5412C49.8876 42.528 52.7388 45.5412 52.524 49.0596C51.858 56.7768 40.8684 56.7744 40.2036 49.0596C40.1576 48.2216 40.2828 47.383 40.5716 46.595C40.8603 45.807 41.3065 45.0861 41.8829 44.4762C42.4594 43.8663 43.1541 43.3801 43.9245 43.0475C44.695 42.7148 45.5252 42.5425 46.3644 42.5412ZM42.24 48.9156C42.2921 49.9741 42.7494 50.9721 43.5173 51.7026C44.2851 52.4331 45.3046 52.8402 46.3644 52.8396C51.8472 52.614 51.8424 44.8104 46.3644 44.5812C45.8051 44.582 45.2518 44.6963 44.7379 44.9171C44.224 45.1379 43.7603 45.4606 43.3747 45.8658C42.9891 46.271 42.6898 46.7502 42.4948 47.2744C42.2997 47.7986 42.2131 48.3569 42.24 48.9156ZM14.64 42.5412C18.1632 42.528 21.0144 45.5412 20.7996 49.0596C20.1336 56.7756 9.1464 56.7756 8.4816 49.0596C8.43565 48.2218 8.56078 47.3834 8.84936 46.5956C9.13793 45.8078 9.58392 45.0869 10.1601 44.477C10.7363 43.8672 11.4307 43.381 12.2009 43.0482C12.9711 42.7154 13.801 42.5428 14.64 42.5412ZM10.5168 48.9156C10.5689 49.9739 11.0261 50.9717 11.7936 51.7022C12.5612 52.4327 13.5804 52.8399 14.64 52.8396C20.1228 52.614 20.118 44.8104 14.64 44.5812C14.0804 44.5815 13.5267 44.6954 13.0124 44.916C12.4981 45.1366 12.0339 45.4593 11.6479 45.8645C11.262 46.2697 10.9623 46.7491 10.7671 47.2735C10.5718 47.798 10.485 48.3566 10.512 48.9156H10.5168ZM12.4536 19.92C12.5011 19.8744 12.5348 19.8164 12.5509 19.7526C12.567 19.6887 12.5647 19.6217 12.5444 19.559C12.5241 19.4964 12.4866 19.4408 12.4362 19.3985C12.3857 19.3562 12.3244 19.329 12.2592 19.32L11.532 19.2144C11.4757 19.2061 11.4223 19.1843 11.3764 19.1509C11.3304 19.1174 11.2932 19.0733 11.268 19.0224L10.9428 18.3636C10.9139 18.3048 10.8691 18.2554 10.8136 18.2208C10.758 18.1862 10.6939 18.1679 10.6284 18.1679C10.5629 18.1679 10.4988 18.1862 10.4432 18.2208C10.3877 18.2554 10.3429 18.3048 10.314 18.3636L9.9888 19.0224C9.96387 19.0733 9.92692 19.1174 9.88113 19.1509C9.83535 19.1843 9.7821 19.2061 9.726 19.2144L9 19.32C8.9348 19.329 8.87346 19.3562 8.82302 19.3985C8.77258 19.4408 8.73506 19.4964 8.71477 19.559C8.69448 19.6217 8.69224 19.6887 8.70831 19.7526C8.72437 19.8164 8.75809 19.8744 8.8056 19.92L9.3324 20.4324C9.3731 20.4722 9.40353 20.5212 9.42109 20.5753C9.43865 20.6295 9.4428 20.6871 9.4332 20.7432L9.3132 21.4632C9.30199 21.5275 9.30907 21.5938 9.33363 21.6543C9.35819 21.7148 9.39924 21.7673 9.45211 21.8057C9.50499 21.844 9.56757 21.8668 9.63275 21.8714C9.69792 21.876 9.76307 21.8622 9.8208 21.8316L10.4712 21.4896C10.5215 21.463 10.5775 21.4491 10.6344 21.4491C10.6913 21.4491 10.7473 21.463 10.7976 21.4896L11.442 21.84C11.4998 21.8704 11.565 21.8841 11.6301 21.8795C11.6953 21.8748 11.7579 21.8521 11.8108 21.8138C11.8637 21.7754 11.9049 21.7231 11.9296 21.6626C11.9543 21.6022 11.9617 21.536 11.9508 21.4716L11.8308 20.7516C11.8212 20.6955 11.8253 20.6379 11.8429 20.5837C11.8605 20.5296 11.8909 20.4805 11.9316 20.4408L12.4536 19.92ZM59.382 17.2452C59.43 17.1999 59.4641 17.142 59.4805 17.0781C59.4969 17.0142 59.4949 16.947 59.4747 16.8842C59.4545 16.8215 59.4169 16.7657 59.3663 16.7234C59.3157 16.6811 59.2542 16.654 59.1888 16.6452L58.4604 16.5396C58.4042 16.5312 58.3508 16.5094 58.3049 16.4759C58.2589 16.4425 58.2217 16.3985 58.1964 16.3476L57.8712 15.6888C57.8425 15.63 57.7979 15.5804 57.7424 15.5458C57.6869 15.5111 57.6228 15.4928 57.5574 15.4928C57.492 15.4928 57.4279 15.5111 57.3724 15.5458C57.3169 15.5804 57.2723 15.63 57.2436 15.6888L56.9184 16.3476C56.8931 16.3985 56.8559 16.4425 56.8099 16.4759C56.764 16.5094 56.7106 16.5312 56.6544 16.5396L55.9272 16.6452C55.8617 16.6538 55.8001 16.6807 55.7493 16.723C55.6986 16.7652 55.6608 16.821 55.6405 16.8838C55.6201 16.9466 55.618 17.0139 55.6343 17.0778C55.6507 17.1418 55.6848 17.1998 55.7328 17.2452L56.2596 17.76C56.3002 17.7996 56.3306 17.8484 56.3481 17.9024C56.3657 17.9563 56.3699 18.0137 56.3604 18.0696L56.2404 18.7896C56.2292 18.8541 56.2364 18.9204 56.261 18.9811C56.2856 19.0417 56.3268 19.0943 56.3797 19.1328C56.4327 19.1712 56.4954 19.1941 56.5607 19.1988C56.626 19.2034 56.6913 19.1897 56.7492 19.1592L57.3996 18.8172C57.4497 18.7906 57.5055 18.7767 57.5622 18.7767C57.6189 18.7767 57.6747 18.7906 57.7248 18.8172L58.3764 19.1592C58.4343 19.1894 58.4994 19.2028 58.5645 19.198C58.6296 19.1932 58.6921 19.1703 58.7449 19.1318C58.7976 19.0934 58.8386 19.041 58.8632 18.9805C58.8878 18.9201 58.895 18.8539 58.884 18.7896L58.764 18.0696C58.7532 18.0144 58.7558 17.9575 58.7717 17.9036C58.7876 17.8497 58.8162 17.8004 58.8552 17.76L59.382 17.2452ZM30.4428 4.19277C30.4908 4.14742 30.5249 4.08939 30.5413 4.02543C30.5576 3.96146 30.5555 3.89417 30.5351 3.83136C30.5148 3.76856 30.477 3.71281 30.4263 3.67058C30.3755 3.62835 30.3139 3.60137 30.2484 3.59277L29.5212 3.48717C29.465 3.4788 29.4116 3.45697 29.3657 3.42354C29.3197 3.39011 29.2825 3.34607 29.2572 3.29517L28.932 2.63997C28.9033 2.58119 28.8587 2.53165 28.8032 2.497C28.7477 2.46234 28.6836 2.44397 28.6182 2.44397C28.5528 2.44397 28.4887 2.46234 28.4332 2.497C28.3777 2.53165 28.3331 2.58119 28.3044 2.63997L27.9792 3.29877C27.9539 3.34967 27.9167 3.39371 27.8707 3.42714C27.8248 3.46057 27.7714 3.4824 27.7152 3.49077L26.988 3.59637C26.9225 3.60497 26.8609 3.63195 26.8101 3.67418C26.7594 3.71641 26.7216 3.77216 26.7013 3.83496C26.6809 3.89777 26.6788 3.96506 26.6951 4.02903C26.7115 4.09299 26.7456 4.15102 26.7936 4.19637L27.3204 4.70997C27.3603 4.75003 27.3903 4.79893 27.4078 4.85272C27.4253 4.90651 27.4299 4.96367 27.4212 5.01957L27.3012 5.73957C27.2902 5.80392 27.2974 5.87006 27.322 5.93053C27.3466 5.99101 27.3876 6.04341 27.4403 6.08184C27.4931 6.12026 27.5556 6.14318 27.6207 6.14801C27.6858 6.15284 27.7509 6.13939 27.8088 6.10917L28.4604 5.76717C28.5105 5.74059 28.5663 5.72669 28.623 5.72669C28.6797 5.72669 28.7355 5.74059 28.7856 5.76717L29.4372 6.10917C29.4951 6.13939 29.5602 6.15284 29.6253 6.14801C29.6904 6.14318 29.7529 6.12026 29.8057 6.08184C29.8584 6.04341 29.8994 5.99101 29.924 5.93053C29.9486 5.87006 29.9558 5.80392 29.9448 5.73957L29.8248 5.01957C29.8161 4.96367 29.8207 4.90651 29.8382 4.85272C29.8557 4.79893 29.8857 4.75003 29.9256 4.70997L30.4428 4.19277Z" fill="url(#paint0_linear_1139_580)"/>
</g>
<defs>
<linearGradient id="paint0_linear_1139_580" x1="47.8908" y1="9.33357" x2="18.0984" y2="60.936" gradientUnits="userSpaceOnUse">
<stop stop-color="#1BA8CB"/>
<stop offset="1" stop-color="#1BA8CB"/>
</linearGradient>
<clipPath id="clip0_1139_580">
<rect width="60" height="60" fill="white" transform="matrix(-1 0 0 1 60 0)"/>
</clipPath>
</defs>
</svg>
