<svg width="135" height="40" viewBox="0 0 135 40" fill="none" xmlns="http://www.w3.org/2000/svg">
<rect width="40" height="40" rx="5" fill="#1BA8CB"/>
<path d="M27.8945 31H23.6699V22.373H15.7539V31H11.5156V11.0117H15.7539V18.8457H23.6699V11.0117H27.8945V31Z" fill="white"/>
<path d="M57.97 29C57.75 29 57.57 28.93 57.43 28.79C57.29 28.65 57.22 28.47 57.22 28.25V8.75C57.22 8.53 57.29 8.35 57.43 8.21C57.57 8.07 57.75 8 57.97 8H61.24C61.46 8 61.64 8.07 61.78 8.21C61.92 8.35 61.99 8.53 61.99 8.75V16.25H70.12V8.75C70.12 8.53 70.19 8.35 70.33 8.21C70.47 8.07 70.65 8 70.87 8H74.14C74.36 8 74.54 8.07 74.68 8.21C74.82 8.35 74.89 8.53 74.89 8.75V28.25C74.89 28.47 74.82 28.65 74.68 28.79C74.54 28.93 74.36 29 74.14 29H70.87C70.65 29 70.47 28.93 70.33 28.79C70.19 28.65 70.12 28.47 70.12 28.25V20.51H61.99V28.25C61.99 28.47 61.92 28.65 61.78 28.79C61.64 28.93 61.46 29 61.24 29H57.97ZM86.1491 29.3C84.4891 29.3 83.0991 29.03 81.9791 28.49C80.8591 27.93 79.9991 27.14 79.3991 26.12C78.8191 25.1 78.4991 23.91 78.4391 22.55C78.4191 22.15 78.4091 21.7 78.4091 21.2C78.4091 20.68 78.4191 20.23 78.4391 19.85C78.4991 18.47 78.8391 17.28 79.4591 16.28C80.0791 15.26 80.9491 14.48 82.0691 13.94C83.1891 13.38 84.5491 13.1 86.1491 13.1C87.7291 13.1 89.0791 13.38 90.1991 13.94C91.3191 14.48 92.1891 15.26 92.8091 16.28C93.4291 17.28 93.7691 18.47 93.8291 19.85C93.8691 20.23 93.8891 20.68 93.8891 21.2C93.8891 21.7 93.8691 22.15 93.8291 22.55C93.7691 23.91 93.4391 25.1 92.8391 26.12C92.2591 27.14 91.4091 27.93 90.2891 28.49C89.1691 29.03 87.7891 29.3 86.1491 29.3ZM86.1491 26C87.1291 26 87.8691 25.7 88.3691 25.1C88.8691 24.48 89.1391 23.58 89.1791 22.4C89.1991 22.1 89.2091 21.7 89.2091 21.2C89.2091 20.7 89.1991 20.3 89.1791 20C89.1391 18.84 88.8691 17.95 88.3691 17.33C87.8691 16.71 87.1291 16.4 86.1491 16.4C85.1691 16.4 84.4191 16.71 83.8991 17.33C83.3991 17.95 83.1291 18.84 83.0891 20C83.0691 20.3 83.0591 20.7 83.0591 21.2C83.0591 21.7 83.0691 22.1 83.0891 22.4C83.1291 23.58 83.3991 24.48 83.8991 25.1C84.4191 25.7 85.1691 26 86.1491 26ZM104.439 29C103.199 29 102.139 28.8 101.259 28.4C100.379 27.98 99.7088 27.34 99.2488 26.48C98.8088 25.62 98.5888 24.54 98.5888 23.24V16.94H96.2488C96.0288 16.94 95.8488 16.87 95.7088 16.73C95.5688 16.59 95.4988 16.41 95.4988 16.19V14.15C95.4988 13.93 95.5688 13.75 95.7088 13.61C95.8488 13.47 96.0288 13.4 96.2488 13.4H98.5888V8.45C98.5888 8.23 98.6588 8.05 98.7988 7.91C98.9588 7.77 99.1388 7.7 99.3388 7.7H102.279C102.499 7.7 102.679 7.77 102.819 7.91C102.959 8.05 103.029 8.23 103.029 8.45V13.4H106.779C106.979 13.4 107.149 13.47 107.289 13.61C107.429 13.75 107.499 13.93 107.499 14.15V16.19C107.499 16.41 107.429 16.59 107.289 16.73C107.149 16.87 106.979 16.94 106.779 16.94H103.029V22.88C103.029 23.64 103.159 24.24 103.419 24.68C103.699 25.1 104.179 25.31 104.859 25.31H107.049C107.249 25.31 107.419 25.38 107.559 25.52C107.699 25.66 107.769 25.83 107.769 26.03V28.25C107.769 28.47 107.699 28.65 107.559 28.79C107.419 28.93 107.249 29 107.049 29H104.439ZM117.346 29.3C115.046 29.3 113.216 28.66 111.856 27.38C110.516 26.1 109.806 24.24 109.726 21.8C109.726 21.64 109.726 21.43 109.726 21.17C109.726 20.89 109.726 20.67 109.726 20.51C109.806 18.97 110.156 17.65 110.776 16.55C111.396 15.43 112.266 14.58 113.386 14C114.506 13.4 115.816 13.1 117.316 13.1C118.996 13.1 120.396 13.45 121.516 14.15C122.656 14.83 123.506 15.77 124.066 16.97C124.646 18.15 124.936 19.51 124.936 21.05V21.74C124.936 21.94 124.856 22.11 124.696 22.25C124.556 22.39 124.386 22.46 124.186 22.46H114.376C114.376 22.48 114.376 22.52 114.376 22.58C114.376 22.62 114.376 22.66 114.376 22.7C114.396 23.34 114.516 23.93 114.736 24.47C114.976 24.99 115.306 25.41 115.726 25.73C116.166 26.05 116.686 26.21 117.286 26.21C117.786 26.21 118.196 26.14 118.516 26C118.836 25.86 119.096 25.69 119.296 25.49C119.516 25.29 119.676 25.12 119.776 24.98C119.956 24.78 120.096 24.66 120.196 24.62C120.316 24.56 120.496 24.53 120.736 24.53H123.856C124.056 24.53 124.216 24.59 124.336 24.71C124.476 24.81 124.536 24.96 124.516 25.16C124.496 25.48 124.326 25.88 124.006 26.36C123.706 26.82 123.256 27.28 122.656 27.74C122.056 28.18 121.306 28.55 120.406 28.85C119.526 29.15 118.506 29.3 117.346 29.3ZM114.376 19.73H120.256V19.67C120.256 18.95 120.136 18.33 119.896 17.81C119.676 17.27 119.346 16.85 118.906 16.55C118.466 16.25 117.936 16.1 117.316 16.1C116.696 16.1 116.166 16.25 115.726 16.55C115.286 16.85 114.946 17.27 114.706 17.81C114.486 18.33 114.376 18.95 114.376 19.67V19.73ZM128.685 29C128.465 29 128.285 28.93 128.145 28.79C128.005 28.65 127.935 28.47 127.935 28.25V8.45C127.935 8.23 128.005 8.05 128.145 7.91C128.285 7.77 128.465 7.7 128.685 7.7H131.685C131.885 7.7 132.055 7.77 132.195 7.91C132.335 8.05 132.405 8.23 132.405 8.45V28.25C132.405 28.47 132.335 28.65 132.195 28.79C132.055 28.93 131.885 29 131.685 29H128.685Z" fill="#1BA8CB"/>
</svg>
