<svg width="135" height="40" viewBox="0 0 135 40" fill="none" xmlns="http://www.w3.org/2000/svg">
<rect width="40" height="40" rx="5" fill="white"/>
<path d="M27.8945 31H23.6699V22.373H15.7539V31H11.5156V11.0117H15.7539V18.8457H23.6699V11.0117H27.8945V31Z" fill="#09333D"/>
<path d="M57.97 30C57.75 30 57.57 29.93 57.43 29.79C57.29 29.65 57.22 29.47 57.22 29.25V9.75C57.22 9.53 57.29 9.35 57.43 9.21C57.57 9.07 57.75 9 57.97 9H61.24C61.46 9 61.64 9.07 61.78 9.21C61.92 9.35 61.99 9.53 61.99 9.75V17.25H70.12V9.75C70.12 9.53 70.19 9.35 70.33 9.21C70.47 9.07 70.65 9 70.87 9H74.14C74.36 9 74.54 9.07 74.68 9.21C74.82 9.35 74.89 9.53 74.89 9.75V29.25C74.89 29.47 74.82 29.65 74.68 29.79C74.54 29.93 74.36 30 74.14 30H70.87C70.65 30 70.47 29.93 70.33 29.79C70.19 29.65 70.12 29.47 70.12 29.25V21.51H61.99V29.25C61.99 29.47 61.92 29.65 61.78 29.79C61.64 29.93 61.46 30 61.24 30H57.97ZM86.1491 30.3C84.4891 30.3 83.0991 30.03 81.9791 29.49C80.8591 28.93 79.9991 28.14 79.3991 27.12C78.8191 26.1 78.4991 24.91 78.4391 23.55C78.4191 23.15 78.4091 22.7 78.4091 22.2C78.4091 21.68 78.4191 21.23 78.4391 20.85C78.4991 19.47 78.8391 18.28 79.4591 17.28C80.0791 16.26 80.9491 15.48 82.0691 14.94C83.1891 14.38 84.5491 14.1 86.1491 14.1C87.7291 14.1 89.0791 14.38 90.1991 14.94C91.3191 15.48 92.1891 16.26 92.8091 17.28C93.4291 18.28 93.7691 19.47 93.8291 20.85C93.8691 21.23 93.8891 21.68 93.8891 22.2C93.8891 22.7 93.8691 23.15 93.8291 23.55C93.7691 24.91 93.4391 26.1 92.8391 27.12C92.2591 28.14 91.4091 28.93 90.2891 29.49C89.1691 30.03 87.7891 30.3 86.1491 30.3ZM86.1491 27C87.1291 27 87.8691 26.7 88.3691 26.1C88.8691 25.48 89.1391 24.58 89.1791 23.4C89.1991 23.1 89.2091 22.7 89.2091 22.2C89.2091 21.7 89.1991 21.3 89.1791 21C89.1391 19.84 88.8691 18.95 88.3691 18.33C87.8691 17.71 87.1291 17.4 86.1491 17.4C85.1691 17.4 84.4191 17.71 83.8991 18.33C83.3991 18.95 83.1291 19.84 83.0891 21C83.0691 21.3 83.0591 21.7 83.0591 22.2C83.0591 22.7 83.0691 23.1 83.0891 23.4C83.1291 24.58 83.3991 25.48 83.8991 26.1C84.4191 26.7 85.1691 27 86.1491 27ZM104.439 30C103.199 30 102.139 29.8 101.259 29.4C100.379 28.98 99.7088 28.34 99.2488 27.48C98.8088 26.62 98.5888 25.54 98.5888 24.24V17.94H96.2488C96.0288 17.94 95.8488 17.87 95.7088 17.73C95.5688 17.59 95.4988 17.41 95.4988 17.19V15.15C95.4988 14.93 95.5688 14.75 95.7088 14.61C95.8488 14.47 96.0288 14.4 96.2488 14.4H98.5888V9.45C98.5888 9.23 98.6588 9.05 98.7988 8.91C98.9588 8.77 99.1388 8.7 99.3388 8.7H102.279C102.499 8.7 102.679 8.77 102.819 8.91C102.959 9.05 103.029 9.23 103.029 9.45V14.4H106.779C106.979 14.4 107.149 14.47 107.289 14.61C107.429 14.75 107.499 14.93 107.499 15.15V17.19C107.499 17.41 107.429 17.59 107.289 17.73C107.149 17.87 106.979 17.94 106.779 17.94H103.029V23.88C103.029 24.64 103.159 25.24 103.419 25.68C103.699 26.1 104.179 26.31 104.859 26.31H107.049C107.249 26.31 107.419 26.38 107.559 26.52C107.699 26.66 107.769 26.83 107.769 27.03V29.25C107.769 29.47 107.699 29.65 107.559 29.79C107.419 29.93 107.249 30 107.049 30H104.439ZM117.346 30.3C115.046 30.3 113.216 29.66 111.856 28.38C110.516 27.1 109.806 25.24 109.726 22.8C109.726 22.64 109.726 22.43 109.726 22.17C109.726 21.89 109.726 21.67 109.726 21.51C109.806 19.97 110.156 18.65 110.776 17.55C111.396 16.43 112.266 15.58 113.386 15C114.506 14.4 115.816 14.1 117.316 14.1C118.996 14.1 120.396 14.45 121.516 15.15C122.656 15.83 123.506 16.77 124.066 17.97C124.646 19.15 124.936 20.51 124.936 22.05V22.74C124.936 22.94 124.856 23.11 124.696 23.25C124.556 23.39 124.386 23.46 124.186 23.46H114.376C114.376 23.48 114.376 23.52 114.376 23.58C114.376 23.62 114.376 23.66 114.376 23.7C114.396 24.34 114.516 24.93 114.736 25.47C114.976 25.99 115.306 26.41 115.726 26.73C116.166 27.05 116.686 27.21 117.286 27.21C117.786 27.21 118.196 27.14 118.516 27C118.836 26.86 119.096 26.69 119.296 26.49C119.516 26.29 119.676 26.12 119.776 25.98C119.956 25.78 120.096 25.66 120.196 25.62C120.316 25.56 120.496 25.53 120.736 25.53H123.856C124.056 25.53 124.216 25.59 124.336 25.71C124.476 25.81 124.536 25.96 124.516 26.16C124.496 26.48 124.326 26.88 124.006 27.36C123.706 27.82 123.256 28.28 122.656 28.74C122.056 29.18 121.306 29.55 120.406 29.85C119.526 30.15 118.506 30.3 117.346 30.3ZM114.376 20.73H120.256V20.67C120.256 19.95 120.136 19.33 119.896 18.81C119.676 18.27 119.346 17.85 118.906 17.55C118.466 17.25 117.936 17.1 117.316 17.1C116.696 17.1 116.166 17.25 115.726 17.55C115.286 17.85 114.946 18.27 114.706 18.81C114.486 19.33 114.376 19.95 114.376 20.67V20.73ZM128.685 30C128.465 30 128.285 29.93 128.145 29.79C128.005 29.65 127.935 29.47 127.935 29.25V9.45C127.935 9.23 128.005 9.05 128.145 8.91C128.285 8.77 128.465 8.7 128.685 8.7H131.685C131.885 8.7 132.055 8.77 132.195 8.91C132.335 9.05 132.405 9.23 132.405 9.45V29.25C132.405 29.47 132.335 29.65 132.195 29.79C132.055 29.93 131.885 30 131.685 30H128.685Z" fill="white"/>
</svg>
