<svg width="20" height="19" viewBox="0 0 20 19" fill="none" xmlns="http://www.w3.org/2000/svg">
<path fill-rule="evenodd" clip-rule="evenodd" d="M19.02 2.55123C19.0599 2.3086 19.0341 2.05969 18.9452 1.83043C18.8563 1.60117 18.7075 1.39996 18.5144 1.24774C18.3213 1.09553 18.0909 0.997886 17.8472 0.964994C17.6035 0.932102 17.3554 0.965161 17.1289 1.06073L1.45388 7.66073C0.361214 8.12089 0.305297 9.70123 1.45388 10.1779C2.59136 10.6518 3.74525 11.0854 4.91338 11.4777C5.98405 11.8316 7.15188 12.1588 8.0878 12.2514C8.34355 12.5576 8.6653 12.8527 8.99346 13.1222C9.49488 13.5347 10.098 13.9591 10.7214 14.3661C11.9699 15.182 13.355 15.9621 14.2881 16.4699C15.4037 17.0749 16.7393 16.3782 16.9391 15.1618L19.02 2.55123ZM3.21113 8.91014L17.0748 3.07281L15.1333 14.8428C14.2175 14.3451 12.8985 13.5998 11.7233 12.8316C11.1817 12.4839 10.6588 12.1078 10.1567 11.7051C10.0225 11.5954 9.89229 11.4811 9.76621 11.3622L13.3971 7.73223C13.5691 7.56035 13.6658 7.32717 13.6659 7.08401C13.666 6.84085 13.5695 6.60761 13.3976 6.4356C13.2257 6.2636 12.9925 6.16692 12.7494 6.16683C12.5062 6.16675 12.273 6.26326 12.101 6.43514L8.12538 10.4107C7.45255 10.3246 6.51571 10.0752 5.48721 9.73606C4.72153 9.48094 3.96287 9.20523 3.21205 8.90923L3.21113 8.91014Z" fill="#1BA8CB"/>
</svg>
