<svg width="46" height="46" viewBox="0 0 46 46" fill="none" xmlns="http://www.w3.org/2000/svg">
<g clip-path="url(#clip0_1139_295)">
<path d="M23 46.0001C10.3141 46.0001 0 35.686 0 23.0001C0 19.0326 1.02781 15.1226 2.96844 11.6942C3.1625 11.3492 3.60094 11.227 3.94594 11.421C4.29094 11.6151 4.41312 12.0535 4.21906 12.3985C2.40062 15.6185 1.4375 19.2842 1.4375 23.0001C1.4375 34.8882 11.1119 44.5626 23 44.5626C34.8881 44.5626 44.5625 34.8882 44.5625 23.0001C44.5625 18.781 43.3406 14.6914 41.0334 11.1767C40.8178 10.846 40.9112 10.4004 41.2419 10.1776C41.5725 9.96198 42.0181 10.0554 42.2409 10.386C44.7062 14.1307 46.0072 18.4935 46.0072 23.0001C46.0072 35.686 35.6931 46.0001 23.0072 46.0001H23Z" fill="#1BA8CB"/>
<path d="M12.9379 3.83094C12.6792 3.83094 12.4204 3.68719 12.2982 3.43563C12.1186 3.08344 12.2623 2.65219 12.6145 2.4725C15.8489 0.83375 19.3492 0 23.0004 0C25.8107 0 28.5564 0.503125 31.1582 1.48781C31.532 1.63156 31.7189 2.04125 31.5751 2.415C31.4314 2.78875 31.0217 2.97563 30.6479 2.83188C28.2042 1.90469 25.6311 1.4375 22.9932 1.4375C19.5648 1.4375 16.2873 2.22094 13.2542 3.75906C13.1464 3.80938 13.0386 3.83813 12.9307 3.83813L12.9379 3.83094Z" fill="#1BA8CB"/>
<path d="M11.5 19.0469C11.3491 19.0469 11.1981 19.0038 11.0687 18.9032L9.91875 18.0407C9.55938 17.7675 9.34375 17.3435 9.34375 16.8907V14.375C9.34375 13.5844 9.99062 12.9375 10.7812 12.9375H13.4263L17.9688 9.69598V9.14973L16.7972 8.76161C16.2078 8.56755 15.8125 8.01411 15.8125 7.39599V4.2263C15.8125 4.02505 15.7263 3.83817 15.5825 3.70161L14.5978 2.78161C14.3103 2.50849 14.2959 2.05567 14.5619 1.76817C14.835 1.48067 15.2878 1.4663 15.5753 1.73224L16.56 2.65224C16.9913 3.06192 17.2428 3.62974 17.2428 4.2263V7.39599L18.4144 7.78411C19.0038 7.97817 19.3991 8.53161 19.3991 9.14973V9.69598C19.3991 10.156 19.1762 10.5944 18.7953 10.8675L14.2528 14.1091C14.0084 14.2816 13.7209 14.375 13.4191 14.375H10.7741V16.8907L11.9241 17.7532C12.2403 17.9904 12.305 18.4432 12.0678 18.7594C11.9241 18.9463 11.7084 19.0469 11.4928 19.0469H11.5Z" fill="#1BA8CB"/>
<path d="M16.0423 41.6876H15.0936C14.303 41.6876 13.6561 41.0407 13.6561 40.2501V37.5476L12.3695 34.9745C12.2689 34.7732 12.2186 34.5504 12.2186 34.3348V29.9145L7.26641 27.4348C6.77766 27.1904 6.46859 26.6945 6.46859 26.1482V23.4457C6.46859 22.8995 6.77047 22.4035 7.26641 22.1591L7.90609 21.8357V21.1888L4.85141 18.7451C4.50641 18.472 4.31234 18.0623 4.31234 17.6238V14.6698L3.08328 13.4407C2.80297 13.1604 2.80297 12.7076 3.08328 12.4273C3.36359 12.147 3.81641 12.147 4.09672 12.4273L5.32578 13.6563C5.59891 13.9295 5.74984 14.2888 5.74984 14.6698V17.6238L8.80453 20.0676C9.14953 20.3407 9.34359 20.7504 9.34359 21.1888V21.8357C9.34359 22.382 9.04172 22.8779 8.54578 23.1223L7.90609 23.4457V26.1482L12.8583 28.6279C13.347 28.8723 13.6561 29.3682 13.6561 29.9145V34.3348L14.9427 36.9079C15.0433 37.1091 15.0936 37.332 15.0936 37.5476V40.2501H16.0423L17.2642 37.1954C17.3145 37.0732 17.372 36.9654 17.4511 36.8648L19.4205 34.2341L19.5355 32.4588C19.5642 32.0707 19.7511 31.697 20.053 31.4454L23.7186 28.4051V25.8679C23.3233 25.8679 22.9998 25.5445 22.9998 25.1492C22.9998 24.7538 23.3233 24.4304 23.7186 24.4304C24.5092 24.4304 25.1561 25.0773 25.1561 25.8679V28.4051C25.1561 28.8363 24.9692 29.2388 24.6386 29.512L20.973 32.5523L20.858 34.3276C20.8364 34.6079 20.743 34.8738 20.5705 35.0967L18.6011 37.7273L17.3792 40.782C17.1564 41.3282 16.6389 41.6876 16.0423 41.6876Z" fill="#1BA8CB"/>
<path d="M40.25 36.6562C40.0991 36.6562 39.9481 36.6131 39.8188 36.5125L37.2312 34.5719C36.8719 34.2987 36.6562 33.8747 36.6562 33.4219V29.7203L34.0975 26.5219C33.8962 26.2703 33.7812 25.9469 33.7812 25.6234V25.1562C33.7812 24.7609 34.1047 24.4375 34.5 24.4375C34.8953 24.4375 35.2188 24.7609 35.2188 25.1562V25.6234L37.7775 28.8219C37.9788 29.0734 38.0938 29.3969 38.0938 29.7203V33.4219L40.6812 35.3625C40.9975 35.5997 41.0622 36.0525 40.825 36.3687C40.6812 36.5556 40.4656 36.6562 40.25 36.6562Z" fill="#1BA8CB"/>
<path d="M40.9694 16.5312C40.5741 16.5312 40.2506 16.2077 40.2506 15.8124H38.9856L38.0225 16.294C37.62 16.4952 37.1384 16.4952 36.7359 16.294L34.3353 15.0937H29.4766C28.6859 15.0937 28.0391 14.4468 28.0391 13.6562V12.578C28.0391 12.1252 28.2547 11.694 28.6141 11.428L30.1881 10.2565V8.91961C30.1881 8.64648 30.2672 8.37336 30.4181 8.14336C30.5906 7.87742 30.8638 7.94929 31.1656 8.03554C31.4747 8.12179 31.6256 8.60336 31.6256 8.91961V10.2565C31.6256 10.7093 31.41 11.1405 31.0506 11.4065L29.4766 12.578V13.6562H34.3353C34.5581 13.6562 34.7809 13.7065 34.975 13.8071L37.3756 15.0074L38.3388 14.5259C38.54 14.4252 38.7628 14.3749 38.9784 14.3749H40.2434C41.0341 14.3749 41.6809 15.0218 41.6809 15.8124C41.6809 16.2077 41.3575 16.5312 40.9622 16.5312H40.9694Z" fill="#1BA8CB"/>
<path d="M36.6562 12.9375C36.455 12.9375 36.2609 12.8512 36.1244 12.7003C35.6644 12.19 31.625 7.61156 31.625 5.03125C31.625 2.25688 33.8819 0 36.6562 0C39.4306 0 41.6875 2.25688 41.6875 5.03125C41.6875 7.61156 37.6481 12.1828 37.1881 12.7003C37.0516 12.8512 36.8575 12.9375 36.6562 12.9375ZM36.6562 1.4375C34.6725 1.4375 33.0625 3.0475 33.0625 5.03125C33.0625 6.40406 35.0894 9.26469 36.6562 11.1262C38.2231 9.26469 40.25 6.40406 40.25 5.03125C40.25 3.0475 38.64 1.4375 36.6562 1.4375Z" fill="#1BA8CB"/>
<path d="M36.6562 7.90625C35.0678 7.90625 33.7812 6.61969 33.7812 5.03125C33.7812 3.44281 35.0678 2.15625 36.6562 2.15625C38.2447 2.15625 39.5312 3.44281 39.5312 5.03125C39.5312 6.61969 38.2447 7.90625 36.6562 7.90625ZM36.6562 3.59375C35.8656 3.59375 35.2188 4.24062 35.2188 5.03125C35.2188 5.82188 35.8656 6.46875 36.6562 6.46875C37.4469 6.46875 38.0938 5.82188 38.0938 5.03125C38.0938 4.24062 37.4469 3.59375 36.6562 3.59375Z" fill="#1BA8CB"/>
<path d="M7.1875 13.6562C6.97188 13.6562 6.76344 13.5556 6.62688 13.3903C6.24594 12.9087 2.875 8.64656 2.875 6.46875C2.875 4.08969 4.80844 2.15625 7.1875 2.15625C9.56656 2.15625 11.5 4.08969 11.5 6.46875C11.5 8.64656 8.12906 12.9087 7.74812 13.3903C7.61156 13.5628 7.40312 13.6562 7.1875 13.6562ZM7.1875 3.59375C5.59906 3.59375 4.3125 4.88031 4.3125 6.46875C4.3125 7.56125 5.90094 10.0409 7.1875 11.7659C8.47406 10.0481 10.0625 7.56844 10.0625 6.46875C10.0625 4.88031 8.77594 3.59375 7.1875 3.59375Z" fill="#1BA8CB"/>
<path d="M7.1875 8.625C6.00156 8.625 5.03125 7.65469 5.03125 6.46875C5.03125 5.28281 6.00156 4.3125 7.1875 4.3125C8.37344 4.3125 9.34375 5.28281 9.34375 6.46875C9.34375 7.65469 8.37344 8.625 7.1875 8.625ZM7.1875 5.75C6.79219 5.75 6.46875 6.07344 6.46875 6.46875C6.46875 6.86406 6.79219 7.1875 7.1875 7.1875C7.58281 7.1875 7.90625 6.86406 7.90625 6.46875C7.90625 6.07344 7.58281 5.75 7.1875 5.75Z" fill="#1BA8CB"/>
<path d="M38.8125 28.75C38.5969 28.75 38.3884 28.6494 38.2519 28.4841C37.8709 28.0025 34.5 23.7403 34.5 21.5625C34.5 19.1834 36.4334 17.25 38.8125 17.25C41.1916 17.25 43.125 19.1834 43.125 21.5625C43.125 23.7403 39.7541 28.0025 39.3731 28.4841C39.2366 28.6566 39.0281 28.75 38.8125 28.75ZM38.8125 18.6875C37.2241 18.6875 35.9375 19.9741 35.9375 21.5625C35.9375 22.655 37.5259 25.1347 38.8125 26.8597C40.0991 25.1419 41.6875 22.6622 41.6875 21.5625C41.6875 19.9741 40.4009 18.6875 38.8125 18.6875Z" fill="#1BA8CB"/>
<path d="M38.8125 23.7188C37.6266 23.7188 36.6562 22.7484 36.6562 21.5625C36.6562 20.3766 37.6266 19.4062 38.8125 19.4062C39.9984 19.4062 40.9688 20.3766 40.9688 21.5625C40.9688 22.7484 39.9984 23.7188 38.8125 23.7188ZM38.8125 20.8438C38.4172 20.8438 38.0938 21.1672 38.0938 21.5625C38.0938 21.9578 38.4172 22.2812 38.8125 22.2812C39.2078 22.2812 39.5312 21.9578 39.5312 21.5625C39.5312 21.1672 39.2078 20.8438 38.8125 20.8438Z" fill="#1BA8CB"/>
<path d="M18.6875 29.4688C18.4791 29.4688 18.2778 29.3753 18.1412 29.2172C17.6094 28.5991 12.9375 23.0863 12.9375 20.125C12.9375 16.9553 15.5178 14.375 18.6875 14.375C21.8572 14.375 24.4375 16.9553 24.4375 20.125C24.4375 23.0863 19.7656 28.5991 19.2338 29.2172C19.0972 29.3753 18.8959 29.4688 18.6875 29.4688ZM18.6875 15.8125C16.3084 15.8125 14.375 17.7459 14.375 20.125C14.375 21.9506 17.1206 25.7025 18.6875 27.6287C20.2544 25.7025 23 21.9434 23 20.125C23 17.7459 21.0666 15.8125 18.6875 15.8125Z" fill="#1BA8CB"/>
<path d="M18.6875 23.7188C16.7038 23.7188 15.0938 22.1087 15.0938 20.125C15.0938 18.1413 16.7038 16.5312 18.6875 16.5312C20.6712 16.5312 22.2812 18.1413 22.2812 20.125C22.2812 22.1087 20.6712 23.7188 18.6875 23.7188ZM18.6875 17.9688C17.5016 17.9688 16.5312 18.9391 16.5312 20.125C16.5312 21.3109 17.5016 22.2812 18.6875 22.2812C19.8734 22.2812 20.8438 21.3109 20.8438 20.125C20.8438 18.9391 19.8734 17.9688 18.6875 17.9688Z" fill="#1BA8CB"/>
</g>
<defs>
<clipPath id="clip0_1139_295">
<rect width="46" height="46" fill="white"/>
</clipPath>
</defs>
</svg>
