<svg width="42" height="42" viewBox="0 0 42 42" fill="none" xmlns="http://www.w3.org/2000/svg">
<g clip-path="url(#clip0_1139_314)">
<path d="M39.6373 37.2724H38.2541V26.5201C39.583 26.7608 40.111 27.7311 40.1404 27.787C40.249 28.0006 40.4654 28.124 40.6903 28.124C40.7829 28.124 40.877 28.1031 40.9654 28.0589C41.2699 27.9066 41.3934 27.5364 41.2411 27.2318C41.207 27.1635 40.5078 25.8083 38.7689 25.3697C39.6258 24.6597 40.9178 24.588 40.9342 24.5871C41.2736 24.572 41.5368 24.2849 41.5225 23.9453C41.5081 23.6051 41.2173 23.3393 40.8806 23.3554C40.8006 23.3588 39.4804 23.4258 38.3561 24.1462C38.1046 22.4645 36.8822 21.6252 36.8141 21.5799C36.5307 21.391 36.146 21.4662 35.9572 21.7495C35.7684 22.0328 35.8429 22.4141 36.1262 22.603C36.1701 22.6333 36.937 23.1792 37.1235 24.2872C35.9615 23.4351 34.4799 23.3591 34.395 23.3555C34.0574 23.3394 33.7693 23.6042 33.7541 23.9438C33.7388 24.2832 34.002 24.5711 34.3414 24.5872C34.3579 24.588 35.6499 24.6597 36.5068 25.3698C34.7679 25.8084 34.0686 27.1635 34.0345 27.2319C33.8823 27.5364 34.0045 27.909 34.309 28.0612C34.3981 28.1058 34.4927 28.1269 34.5858 28.1269C34.8109 28.1269 35.0272 28.0033 35.1349 27.7878C35.1596 27.7406 35.6861 26.7624 37.0212 26.5204V37.2725H33.0314V19.1979C33.0314 18.8575 32.7554 18.5815 32.4149 18.5815C32.0744 18.5815 31.7984 18.8575 31.7984 19.1979V37.2725H27.1284V28.2962C27.1284 27.9558 26.8524 27.6797 26.5119 27.6797H15.488C15.1476 27.6797 14.8715 27.9558 14.8715 28.2962V31.8596C14.8715 32.2001 15.1476 32.4761 15.488 32.4761C15.8284 32.4761 16.1045 32.2001 16.1045 31.8596V28.9127H20.3833V37.2724H16.1045V34.3253C16.1045 33.9849 15.8285 33.7089 15.488 33.7089C15.1476 33.7089 14.8715 33.9848 14.8715 34.3253V37.2724H10.2015V10.8601C10.2015 10.5197 9.92554 10.2437 9.58502 10.2437C9.24451 10.2437 8.96856 10.5197 8.96856 10.8601V37.2724H4.9788V26.5202C6.30829 26.7611 6.83599 27.7323 6.86479 27.7871C6.97348 28.0007 7.18988 28.124 7.41464 28.124C7.50725 28.124 7.60126 28.1031 7.68977 28.0589C7.99427 27.9066 8.11773 27.5364 7.96548 27.2318C7.93135 27.1635 7.23212 25.8083 5.49322 25.3697C6.35012 24.6597 7.64211 24.588 7.65868 24.5871C7.99805 24.572 8.26128 24.2849 8.24693 23.9453C8.23257 23.6052 7.94514 23.3399 7.60504 23.3554C7.52013 23.359 6.03857 23.4351 4.87659 24.2871C5.06231 23.1838 5.82364 22.6378 5.87327 22.6033C6.15374 22.4136 6.22888 22.0329 6.04078 21.7508C5.85195 21.4676 5.46919 21.391 5.18593 21.5799C5.11793 21.6252 3.8955 22.4645 3.64391 24.1462C2.51959 23.4258 1.19938 23.3588 1.1194 23.3554C0.780035 23.3401 0.493664 23.6042 0.478406 23.9437C0.463148 24.2831 0.726305 24.571 1.06575 24.5871C1.08224 24.5879 2.37423 24.6597 3.23121 25.3697C1.49231 25.8083 0.793078 27.1634 0.758953 27.2318C0.606703 27.5363 0.73016 27.9066 1.03466 28.0589C1.12317 28.1031 1.21718 28.124 1.30979 28.124C1.53595 28.124 1.75366 27.9992 1.86162 27.7831C1.86736 27.7715 2.38686 26.7657 3.74588 26.5202V37.2724H2.36266C1.05984 37.2724 0 38.3323 0 39.6373C0 40.9401 1.05984 41.9999 2.36266 41.9999H39.6373C40.9401 41.9999 42 40.9401 42 39.6351C42 38.3323 40.9401 37.2724 39.6373 37.2724ZM21.6165 28.9127H25.8955V37.2724H21.6165V28.9127ZM39.6373 40.7671H2.36266C1.73972 40.7671 1.23285 40.2603 1.23285 39.6351C1.23285 39.0122 1.73964 38.5053 2.36266 38.5053H39.6373C40.2604 38.5053 40.7672 39.0122 40.7672 39.6373C40.7672 40.2602 40.2604 40.7671 39.6373 40.7671Z" fill="#1BA8CB"/>
<path d="M8.96763 4.71696H8.96796V8.39442C8.96796 8.73485 9.244 9.01089 9.58443 9.01089C9.92486 9.01089 10.2009 8.73485 10.2009 8.39442V4.71696H31.7978V16.7322C31.7978 17.0727 32.0738 17.3487 32.4143 17.3487C32.7548 17.3487 33.0308 17.0728 33.0308 16.7322V4.71696H33.0311C33.8242 4.71696 34.4694 4.0717 34.4694 3.27862V1.43834C34.4694 0.645258 33.8242 0 33.031 0H8.96763C8.17456 0 7.5293 0.645258 7.5293 1.43834V3.27862C7.52921 4.07178 8.17447 4.71696 8.96763 4.71696ZM8.76214 1.43834C8.76214 1.32505 8.85435 1.23285 8.96763 1.23285H33.031C33.1444 1.23285 33.2365 1.32505 33.2365 1.43834V3.27862C33.2365 3.39191 33.1444 3.48411 33.031 3.48411H8.96763C8.85435 3.48411 8.76214 3.39191 8.76214 3.27862V1.43834Z" fill="#1BA8CB"/>
<path d="M22.2423 20.7239H19.7559C19.1894 20.7239 18.7285 21.1847 18.7285 21.7512V24.2377C18.7285 24.8042 19.1894 25.265 19.7559 25.265H22.2423C22.8088 25.265 23.2697 24.8042 23.2697 24.2377V21.7512C23.2697 21.1847 22.8088 20.7239 22.2423 20.7239ZM22.0368 24.0323H19.9614V21.9568H22.0368V24.0323Z" fill="#1BA8CB"/>
<path d="M16.1213 20.7239H13.6349C13.0684 20.7239 12.6074 21.1847 12.6074 21.7512V24.2377C12.6074 24.8042 13.0683 25.265 13.6349 25.265H16.1213C16.6878 25.265 17.1487 24.8042 17.1487 24.2377V21.7512C17.1487 21.1847 16.6878 20.7239 16.1213 20.7239ZM15.9158 24.0323H13.8404V21.9568H15.9158V24.0323Z" fill="#1BA8CB"/>
<path d="M28.3654 20.7239H25.8789C25.3124 20.7239 24.8516 21.1847 24.8516 21.7512V24.2377C24.8516 24.8042 25.3124 25.265 25.8789 25.265H28.3654C28.9319 25.265 29.3927 24.8042 29.3927 24.2377V21.7512C29.3927 21.1847 28.9319 20.7239 28.3654 20.7239ZM28.1599 24.0323H26.0844V21.9568H28.1599V24.0323Z" fill="#1BA8CB"/>
<path d="M23.2697 15.0676C23.2697 14.5011 22.8088 14.0403 22.2423 14.0403H19.7559C19.1894 14.0403 18.7285 14.5011 18.7285 15.0676V17.5541C18.7285 18.1206 19.1894 18.5815 19.7559 18.5815H22.2423C22.8088 18.5815 23.2697 18.1206 23.2697 17.5541V15.0676ZM22.0368 17.3487H19.9614V15.2732H22.0368V17.3487Z" fill="#1BA8CB"/>
<path d="M17.1487 15.0676C17.1487 14.5011 16.6878 14.0403 16.1213 14.0403H13.6349C13.0684 14.0403 12.6074 14.5011 12.6074 15.0676V17.5541C12.6074 18.1206 13.0683 18.5815 13.6349 18.5815H16.1213C16.6878 18.5815 17.1487 18.1206 17.1487 17.5541V15.0676ZM15.9158 17.3487H13.8404V15.2732H15.9158V17.3487Z" fill="#1BA8CB"/>
<path d="M29.3927 15.0676C29.3927 14.5011 28.9319 14.0403 28.3654 14.0403H25.8789C25.3124 14.0403 24.8516 14.5011 24.8516 15.0676V17.5541C24.8516 18.1206 25.3124 18.5815 25.8789 18.5815H28.3654C28.9319 18.5815 29.3927 18.1206 29.3927 17.5541V15.0676ZM28.1599 17.3487H26.0844V15.2732H28.1599V17.3487Z" fill="#1BA8CB"/>
<path d="M23.2697 8.38405C23.2697 7.81754 22.8088 7.35669 22.2423 7.35669H19.7559C19.1894 7.35669 18.7285 7.81754 18.7285 8.38405V10.8705C18.7285 11.437 19.1894 11.8979 19.7559 11.8979H22.2423C22.8088 11.8979 23.2697 11.437 23.2697 10.8705V8.38405ZM22.0368 10.665H19.9614V8.58954H22.0368V10.665Z" fill="#1BA8CB"/>
<path d="M17.1487 8.38405C17.1487 7.81754 16.6878 7.35669 16.1213 7.35669H13.6349C13.0684 7.35669 12.6074 7.81754 12.6074 8.38405V10.8705C12.6074 11.437 13.0683 11.8979 13.6349 11.8979H16.1213C16.6878 11.8979 17.1487 11.437 17.1487 10.8705V8.38405ZM15.9158 10.665H13.8404V8.58954H15.9158V10.665Z" fill="#1BA8CB"/>
<path d="M29.3927 8.38405C29.3927 7.81754 28.9319 7.35669 28.3654 7.35669H25.8789C25.3124 7.35669 24.8516 7.81754 24.8516 8.38405V10.8705C24.8516 11.437 25.3124 11.8979 25.8789 11.8979H28.3654C28.9319 11.8979 29.3927 11.437 29.3927 10.8705V8.38405ZM28.1599 10.665H26.0844V8.58954H28.1599V10.665Z" fill="#1BA8CB"/>
</g>
<defs>
<clipPath id="clip0_1139_314">
<rect width="42" height="42" fill="white"/>
</clipPath>
</defs>
</svg>
