<svg width="54" height="54" viewBox="0 0 54 54" fill="none" xmlns="http://www.w3.org/2000/svg">
<path d="M50.2097 30.0032H46.0488V21.4055C46.048 20.6785 45.7588 19.9815 45.2447 19.4674C44.7306 18.9533 44.0336 18.6641 43.3066 18.6633H20.56C19.833 18.6641 19.136 18.9533 18.6219 19.4674C18.1078 19.9815 17.8187 20.6785 17.8178 21.4055V30.0032H13.6568C12.1486 30.0032 10.9219 31.2073 10.9219 32.6873V47.9358C10.9341 48.5401 11.1828 49.1156 11.6146 49.5387C12.0463 49.9617 12.6267 50.1987 13.2312 50.1987C13.8356 50.1987 14.416 49.9617 14.8478 49.5387C15.2795 49.1156 15.5282 48.5401 15.5405 47.9358V42.8585H48.295V47.9204C48.3059 48.5298 48.5556 49.1106 48.9904 49.5377C49.4253 49.9649 50.0104 50.2042 50.6199 50.2042C51.2295 50.2042 51.8146 49.9649 52.2494 49.5377C52.6843 49.1106 52.934 48.5298 52.9448 47.9204V32.6873C52.9448 31.2073 51.7178 30.0032 50.2097 30.0032ZM12.1875 41.5929V39.7109H51.6792V41.5929H12.1875ZM19.0835 21.4055C19.0839 21.014 19.2396 20.6387 19.5164 20.3619C19.7932 20.0851 20.1686 19.9294 20.56 19.929H43.3066C43.6981 19.9294 44.0734 20.0851 44.3502 20.3619C44.627 20.6387 44.7827 21.014 44.7831 21.4055V30.0032H43.2761V27.5697C43.2761 26.0898 42.0492 24.8858 40.5412 24.8858H35.4233C33.9151 24.8858 32.6883 26.0898 32.6883 27.5697V30.0028H31.1784V27.5697C31.1784 26.0898 29.9514 24.8858 28.4433 24.8858H23.3255C21.8173 24.8858 20.5905 26.0898 20.5905 27.5697V30.0028H19.0835V21.4055ZM33.9539 30.0032V27.5697C33.9612 27.187 34.12 26.8227 34.3955 26.5569C34.6709 26.291 35.0405 26.1452 35.4233 26.1514H40.5417C40.9244 26.1454 41.2938 26.2912 41.5692 26.5571C41.8445 26.823 42.0032 27.1871 42.0105 27.5697V30.0028L33.9539 30.0032ZM21.8567 30.0032V27.5697C21.864 27.187 22.0228 26.8227 22.2982 26.5569C22.5737 26.291 22.9433 26.1452 23.3261 26.1514H28.4438C28.8265 26.1453 29.196 26.2912 29.4714 26.557C29.7467 26.8229 29.9055 27.1871 29.9128 27.5697V30.0028L21.8567 30.0032ZM13.6573 31.2688H50.2097C50.5925 31.2626 50.9622 31.4085 51.2376 31.6744C51.5131 31.9402 51.6719 32.3045 51.6792 32.6873V38.4453H12.1875V32.6873C12.1948 32.3045 12.3536 31.9403 12.629 31.6744C12.9044 31.4085 13.274 31.2627 13.6568 31.2688H13.6573ZM14.2754 47.9355C14.2672 48.2069 14.1536 48.4644 13.9588 48.6534C13.764 48.8425 13.5032 48.9482 13.2317 48.9482C12.9602 48.9482 12.6994 48.8425 12.5046 48.6534C12.3098 48.4644 12.1962 48.2069 12.188 47.9355V42.8585H14.2754V47.9355ZM50.6204 48.9386C50.3451 48.9436 50.0789 48.8392 49.8804 48.6484C49.6818 48.4575 49.567 48.1957 49.5612 47.9204V42.8585H51.6792V47.9204C51.6733 48.1957 51.5585 48.4575 51.36 48.6484C51.1614 48.8392 50.8953 48.9436 50.6199 48.9386H50.6204Z" fill="#1BA8CB"/>
<path d="M8.61043 48.4629H7.14653V23.7938H11.2522C11.3727 23.7941 11.4913 23.7641 11.5971 23.7066C11.703 23.6491 11.7926 23.5659 11.8579 23.4646C11.9232 23.3634 11.962 23.2474 11.9707 23.1273C11.9795 23.0071 11.9579 22.8867 11.9079 22.7771L9.34977 17.183C9.29212 17.0575 9.19971 16.9512 9.08347 16.8766C8.96724 16.802 8.83207 16.7623 8.69396 16.7622H4.33346C4.19541 16.7623 4.06027 16.8019 3.94406 16.8765C3.82784 16.951 3.73543 17.0573 3.67777 17.1827L1.11941 22.7764C1.06945 22.886 1.04785 23.0064 1.05658 23.1265C1.06531 23.2467 1.10411 23.3627 1.16939 23.4639C1.23468 23.5651 1.32437 23.6483 1.43021 23.7059C1.53605 23.7634 1.65465 23.7934 1.77511 23.7931H3.27973V25.6748C3.11403 25.7788 2.97735 25.923 2.88243 26.094C2.78751 26.2651 2.73744 26.4574 2.73688 26.653C2.73981 26.9628 2.86496 27.259 3.08511 27.4771C3.30527 27.6951 3.60261 27.8175 3.91249 27.8175C4.22236 27.8175 4.51971 27.6951 4.73986 27.4771C4.96001 27.259 5.08516 26.9628 5.08809 26.653C5.08756 26.4574 5.0375 26.2651 4.9426 26.0941C4.8477 25.923 4.71103 25.7788 4.54535 25.6748V23.7931H5.8809V48.4629H4.4171C4.24927 48.4629 4.08831 48.5296 3.96963 48.6483C3.85096 48.767 3.78429 48.9279 3.78429 49.0958C3.78429 49.2636 3.85096 49.4246 3.96963 49.5432C4.08831 49.6619 4.24927 49.7286 4.4171 49.7286H8.61043C8.77827 49.7286 8.93922 49.6619 9.0579 49.5432C9.17657 49.4246 9.24325 49.2636 9.24325 49.0958C9.24325 48.9279 9.17657 48.767 9.0579 48.6483C8.93922 48.5296 8.77827 48.4629 8.61043 48.4629ZM3.91254 26.7561C3.88697 26.7542 3.86316 26.7424 3.8463 26.7231C3.82944 26.7037 3.82087 26.6786 3.82247 26.653C3.82273 26.6411 3.82482 26.6294 3.82869 26.6182C3.85665 26.6221 3.88484 26.6242 3.91307 26.6244C3.94109 26.6242 3.96906 26.6221 3.99681 26.6182C4.00072 26.6294 4.00282 26.6411 4.00303 26.653C4.00462 26.6786 3.996 26.7039 3.97905 26.7232C3.96209 26.7425 3.93819 26.7543 3.91254 26.7561ZM4.68246 18.0271H8.34444L10.4025 22.5274H2.62498L4.68246 18.0271Z" fill="#1BA8CB"/>
<path d="M19.4609 3.79614C19.2931 3.79614 19.1321 3.86281 19.0135 3.98149C18.8948 4.10016 18.8281 4.26112 18.8281 4.42896V15.1551C18.8281 15.323 18.8948 15.4839 19.0135 15.6026C19.1321 15.7213 19.2931 15.7879 19.4609 15.7879H44.4072C44.5751 15.7879 44.736 15.7213 44.8547 15.6026C44.9734 15.4839 45.0401 15.323 45.0401 15.1551V4.42896C45.0401 4.26112 44.9734 4.10016 44.8547 3.98149C44.736 3.86281 44.5751 3.79614 44.4072 3.79614H19.4609ZM34.1445 14.5223L34.054 14.4259L37.009 11.9369L39.7701 14.5227L34.1445 14.5223ZM24.5258 14.5223L28.6111 10.4816L32.408 14.5218L24.5258 14.5223ZM43.7746 14.5223H41.6215L37.4639 10.6284C37.3509 10.5225 37.2028 10.4617 37.0479 10.4576C36.8931 10.4535 36.742 10.5064 36.6236 10.6063L33.186 13.5017L29.0885 9.14193C29.0307 9.08035 28.9612 9.03097 28.884 8.99671C28.8068 8.96246 28.7235 8.94402 28.639 8.94249C28.5545 8.94009 28.4703 8.95507 28.3918 8.98651C28.3133 9.01795 28.242 9.06518 28.1825 9.12527L22.7256 14.5218H20.0938V5.06124H43.7744L43.7746 14.5223Z" fill="#1BA8CB"/>
<path d="M33.2045 10.9463C34.3897 10.9463 35.3541 9.91628 35.3541 8.65044C35.3541 7.38461 34.3897 6.35449 33.2045 6.35449C32.0192 6.35449 31.0547 7.3845 31.0547 8.65044C31.0547 9.91638 32.0193 10.9463 33.2045 10.9463ZM33.2045 7.62012C33.6919 7.62012 34.0885 8.08228 34.0885 8.65044C34.0885 9.2186 33.6919 9.68066 33.2045 9.68066C32.717 9.68066 32.3203 9.2185 32.3203 8.65044C32.3203 8.08239 32.717 7.62012 33.2045 7.62012Z" fill="#1BA8CB"/>
</svg>
