<svg width="46" height="46" viewBox="0 0 46 46" fill="none" xmlns="http://www.w3.org/2000/svg">
<g clip-path="url(#clip0_1139_339)">
<g clip-path="url(#clip1_1139_339)">
<path d="M23.0004 12.731C26.3516 12.731 29.0828 9.99971 29.0828 6.64854C29.0828 3.29736 26.3516 0.557129 23.0004 0.557129C19.6492 0.557129 16.918 3.28838 16.918 6.63955C16.918 9.99072 19.6492 12.731 23.0004 12.731ZM23.0004 2.08447C25.516 2.08447 27.5645 4.13291 27.5645 6.64854C27.5645 9.16416 25.516 11.2126 23.0004 11.2126C20.4848 11.2126 18.4363 9.16416 18.4363 6.64854C18.4363 4.13291 20.4848 2.08447 23.0004 2.08447Z" fill="#1BA8CB"/>
<path d="M37.4566 16.5314C39.9723 16.5314 42.0207 14.483 42.0207 11.9674C42.0207 9.45176 39.9723 7.40332 37.4566 7.40332C34.941 7.40332 32.8926 9.45176 32.8926 11.9674C32.8926 14.483 34.941 16.5314 37.4566 16.5314ZM37.4566 8.93066C39.1367 8.93066 40.5023 10.2963 40.5023 11.9764C40.5023 13.6564 39.1367 15.0221 37.4566 15.0221C35.7766 15.0221 34.4109 13.6475 34.4109 11.9674C34.4109 10.2963 35.7766 8.93066 37.4566 8.93066Z" fill="#1BA8CB"/>
<path d="M41.7594 16.774L39.5762 21.0775L39.1359 19.3255H39.7379V17.8072H35.1738V19.3166H35.9375L35.4434 21.2841L33.1523 16.774C33.1523 16.774 32.4426 17.1064 32.4156 17.1154C31.3105 14.3392 28.2379 13.0544 28.2379 13.0544L25.4438 18.6068L24.734 15.7767H25.282V14.2583H20.718V15.7767H21.266L20.5562 18.6068L17.7621 13.0544C17.7621 13.0544 14.7703 14.1595 13.5844 17.1154C13.5574 17.1064 12.8477 16.774 12.8477 16.774L10.6645 21.0775L10.2242 19.3255H10.8262V17.8072H6.26211V19.3166H7.02578L6.53164 21.2841L4.24062 16.774C4.24062 16.774 0.179688 18.0767 0.179688 22.3263V32.4966H2.46172V43.9248H14.6086V31.7509H16.1539V45.4431H29.8461V31.7509H31.3645V43.9248H43.5113V32.4966H45.8203V22.3263C45.8203 18.4001 41.7594 16.774 41.7594 16.774ZM8.59805 19.3166H8.66094L9.61328 23.1439L8.54414 25.2462L7.58281 23.3595L8.59805 19.3166ZM13.0902 42.3974H9.30781V34.033H7.78945V42.3974H3.98008V30.9693H1.69805V22.3173C1.69805 20.9068 2.4168 19.5951 3.5668 18.8134L8.54414 28.6064L13.1082 19.622L13.0902 42.3974ZM22.8293 15.7767H23.1617L24.3926 20.6912L23 23.4673L21.6074 20.6912L22.8293 15.7767ZM31.3645 30.2236H28.3188V43.9158H23.7547V33.2693H22.2363V43.9158H17.6723V30.2236H14.6266V19.5771C14.6266 17.7533 15.5699 16.0642 17.0793 15.0939L23 26.8544L28.9117 15.0939C30.4211 16.0642 31.3645 17.7533 31.3645 19.5771V30.2236ZM37.5008 19.3166H37.5637L38.516 23.1439L37.4559 25.2462L36.4945 23.3595L37.5008 19.3166ZM44.302 30.9693H41.993V42.3974H38.2105V34.033H36.6922V42.3974H32.8918V19.622L37.4559 28.6064L42.4332 18.8134C43.5922 19.6041 44.302 20.9068 44.302 22.3173V30.9693Z" fill="#1BA8CB"/>
<path d="M8.54453 16.5314C11.0602 16.5314 13.1086 14.483 13.1086 11.9674C13.1086 9.45176 11.0602 7.40332 8.54453 7.40332C6.02891 7.40332 3.98047 9.45176 3.98047 11.9674C3.98047 14.483 6.02891 16.5314 8.54453 16.5314ZM8.54453 8.93066C10.2246 8.93066 11.5902 10.2963 11.5902 11.9764C11.5902 13.6564 10.2246 15.0221 8.54453 15.0221C6.86445 15.0221 5.49883 13.6564 5.49883 11.9764C5.50781 10.2963 6.87344 8.93066 8.54453 8.93066Z" fill="#1BA8CB"/>
</g>
</g>
<defs>
<clipPath id="clip0_1139_339">
<rect width="46" height="46" fill="white"/>
</clipPath>
<clipPath id="clip1_1139_339">
<rect width="46" height="46" fill="white"/>
</clipPath>
</defs>
</svg>
