<svg width="62" height="62" viewBox="0 0 62 62" fill="none" xmlns="http://www.w3.org/2000/svg">
<circle cx="31" cy="31" r="31" fill="#1BA8CB" fill-opacity="0.06"/>
<path d="M30.8812 48.8006C30.9204 48.8084 30.9602 48.8125 30.9994 48.8125C31.0386 48.8125 31.0784 48.8084 31.1175 48.8006C47.1298 45.5522 47.1464 31.7695 47.1446 31.6377V16.8575C47.1446 16.5297 46.8792 16.2637 46.5509 16.2637C36.3146 16.2637 31.3586 13.3057 31.3099 13.2754C31.1199 13.159 30.8783 13.159 30.6883 13.2754C30.6396 13.3051 25.6835 16.2637 15.4473 16.2637C15.119 16.2637 14.8535 16.5297 14.8535 16.8575V31.6306C14.8518 31.7695 14.8684 45.5522 30.8806 48.8006H30.8812ZM16.0416 17.4477C24.9342 17.3515 29.7674 15.119 30.9994 14.4623C32.2314 15.119 37.0651 17.3521 45.9571 17.4477V31.6442C45.9625 32.1703 45.9096 44.5227 30.9994 47.6125C16.0891 44.5227 16.0363 32.1703 16.0416 31.6377V17.4477Z" fill="#1BA8CB"/>
<path d="M20.9362 32.7652C20.5277 33.6553 20.8768 34.7282 21.73 35.2079L23.2886 36.0831C23.4685 36.1841 23.595 36.358 23.6353 36.5611L23.9868 38.3138C24.1792 39.2733 25.0823 39.936 26.0644 39.8232L27.8403 39.6153C28.0481 39.5928 28.2494 39.6581 28.4014 39.7982L29.7153 41.0095C30.0752 41.3414 30.5371 41.507 30.999 41.507C31.461 41.507 31.9241 41.3408 32.2839 41.0095L33.5979 39.7982C33.7499 39.6581 33.9565 39.5928 34.159 39.6153L35.9343 39.8232C36.9062 39.9348 37.8194 39.2739 38.0124 38.3138L38.3639 36.5605C38.4043 36.358 38.5307 36.1841 38.7107 36.0831L40.2692 35.2073C41.1225 34.7276 41.471 33.6547 41.0631 32.7647L40.3167 31.1402C40.2301 30.9525 40.2301 30.7376 40.3167 30.55L41.0631 28.9255C41.4716 28.0354 41.1225 26.9625 40.2692 26.4828L38.7107 25.6076C38.5307 25.5067 38.4043 25.3327 38.3639 25.1296L38.0124 23.3769C37.82 22.418 36.9163 21.7571 35.9343 21.8676L34.159 22.0754C33.9517 22.1003 33.7499 22.0326 33.5979 21.8925L32.2839 20.6812C31.9235 20.3487 31.461 20.1831 30.999 20.1837C30.5371 20.1837 30.0752 20.3499 29.7153 20.6812L28.4014 21.8925C28.2494 22.0326 28.0427 22.1003 27.8403 22.0754L26.0644 21.8676C25.0782 21.7488 24.1792 22.4174 23.9868 23.3769L23.6353 25.1302C23.595 25.3327 23.4685 25.5067 23.2886 25.6076L21.73 26.4834C20.8768 26.9625 20.5282 28.0354 20.9362 28.9261L21.6825 30.5506C21.7692 30.7382 21.7692 30.9531 21.6825 31.1407L20.9362 32.7652ZM22.7619 30.0548L22.0156 28.4309C21.863 28.0984 21.993 27.6982 22.3119 27.5189L23.8705 26.6431C24.3526 26.3717 24.6916 25.9057 24.7991 25.3636L25.1506 23.6108C25.223 23.2528 25.5597 23.007 25.926 23.0473L27.7019 23.2552C28.2494 23.3205 28.7992 23.1412 29.2059 22.7665L30.5199 21.5552C30.7882 21.3077 31.2092 21.3071 31.4788 21.5552L32.7927 22.7665C33.1995 23.1417 33.7511 23.3211 34.2967 23.2552L36.072 23.0473C36.4342 23.0028 36.7762 23.2528 36.8481 23.6108L37.1996 25.363C37.3076 25.9057 37.6461 26.3717 38.1282 26.6431L39.6868 27.5189C40.0056 27.6976 40.1357 28.0984 39.9831 28.4303L39.2367 30.0548C39.0058 30.5571 39.0058 31.1336 39.2367 31.6365L39.9831 33.2604C40.1357 33.5929 40.0056 33.9931 39.6868 34.1724L38.1282 35.0482C37.6461 35.3196 37.307 35.7857 37.1996 36.3277L36.8481 38.0805C36.7756 38.4391 36.4312 38.6837 36.072 38.644L34.2967 38.4362C33.7511 38.3726 33.1989 38.5502 32.7927 38.9248L31.4788 40.1361C31.2092 40.3837 30.7882 40.3831 30.5199 40.1361L29.2059 38.9248C28.8538 38.6 28.396 38.4231 27.9228 38.4231C27.8492 38.4231 27.7756 38.4272 27.7019 38.4362L25.926 38.644C25.5603 38.6849 25.2224 38.4385 25.1506 38.0805L24.7991 36.3283C24.691 35.7857 24.3526 35.3196 23.8705 35.0482L22.3119 34.1724C21.993 33.9937 21.863 33.5929 22.0156 33.261L22.7619 31.6365C22.9929 31.1342 22.9929 30.5577 22.7619 30.0548Z" fill="#1BA8CB"/>
<path d="M27.9217 31.1045H28.5475C29.3598 31.1045 30.0206 30.4437 30.0206 29.6314V27.6685C30.0206 26.8562 29.3598 26.1954 28.5475 26.1954H27.9217C27.1095 26.1954 26.4492 26.8562 26.4492 27.6685V29.6314C26.4492 30.4437 27.1095 31.1045 27.9217 31.1045ZM27.6367 27.6685C27.6367 27.5112 27.765 27.3829 27.9217 27.3829H28.5475C28.7055 27.3829 28.8331 27.5112 28.8331 27.6685V29.6314C28.8331 29.7888 28.7049 29.917 28.5475 29.917H27.9217C27.7644 29.917 27.6367 29.7888 27.6367 29.6314V27.6685Z" fill="#1BA8CB"/>
<path d="M33.4516 30.1854C32.6394 30.1854 31.9785 30.8462 31.9785 31.6585V33.6208C31.9785 34.4331 32.6394 35.0939 33.4516 35.0939H34.0774C34.8897 35.0939 35.5499 34.4331 35.5499 33.6208V31.6585C35.5499 30.8462 34.8897 30.1854 34.0774 30.1854H33.4516ZM34.3624 31.6585V33.6208C34.3624 33.7782 34.2342 33.9064 34.0774 33.9064H33.4516C33.2937 33.9064 33.166 33.7782 33.166 33.6208V31.6585C33.166 31.5011 33.2943 31.3729 33.4516 31.3729H34.0774C34.2348 31.3729 34.3624 31.5011 34.3624 31.6585Z" fill="#1BA8CB"/>
<path d="M27.9468 35.1581C28.0489 35.2269 28.1647 35.2596 28.2793 35.2596C28.4699 35.2596 28.6569 35.1682 28.7715 34.9983L34.209 26.956C34.3931 26.6841 34.3213 26.3153 34.0499 26.1313C33.7774 25.9484 33.4093 26.0197 33.2252 26.291L27.7876 34.3333C27.6036 34.6053 27.6754 34.974 27.9468 35.1581Z" fill="#1BA8CB"/>
</svg>
