<svg width="62" height="62" viewBox="0 0 62 62" fill="none" xmlns="http://www.w3.org/2000/svg">
<circle cx="31" cy="31" r="31" fill="#1BA8CB" fill-opacity="0.06"/>
<g clip-path="url(#clip0_1139_238)">
<path d="M44.3229 18.2106H41.6584V17.1448C41.6584 16.5794 41.4338 16.0373 41.0341 15.6375C40.6343 15.2378 40.0922 15.0132 39.5268 15.0132C38.9615 15.0132 38.4193 15.2378 38.0196 15.6375C37.6198 16.0373 37.3953 16.5794 37.3953 17.1448V18.2106H33.1321V17.1448C33.1321 16.5794 32.9075 16.0373 32.5078 15.6375C32.108 15.2378 31.5658 15.0132 31.0005 15.0132C30.4352 15.0132 29.893 15.2378 29.4933 15.6375C29.0935 16.0373 28.8689 16.5794 28.8689 17.1448V18.2106H24.6058V17.1448C24.6058 16.5794 24.3812 16.0373 23.9815 15.6375C23.5817 15.2378 23.0395 15.0132 22.4742 15.0132C21.9089 15.0132 21.3667 15.2378 20.9669 15.6375C20.5672 16.0373 20.3426 16.5794 20.3426 17.1448V18.2106H17.6781C16.9715 18.2106 16.2938 18.4913 15.7941 18.991C15.2944 19.4906 15.0137 20.1684 15.0137 20.875V42.1908C15.0137 42.8975 15.2944 43.5752 15.7941 44.0749C16.2938 44.5746 16.9715 44.8553 17.6781 44.8553H32.5992C32.7405 44.8553 32.8761 44.7991 32.976 44.6992C33.0759 44.5993 33.1321 44.4637 33.1321 44.3224C33.1321 44.1811 33.0759 44.0455 32.976 43.9456C32.8761 43.8456 32.7405 43.7895 32.5992 43.7895H17.6781C17.2545 43.7882 16.8486 43.6194 16.5491 43.3199C16.2496 43.0203 16.0807 42.6144 16.0795 42.1908V25.6711H45.9216V34.7303C45.9216 34.8716 45.9777 35.0072 46.0776 35.1071C46.1776 35.207 46.3131 35.2632 46.4545 35.2632C46.5958 35.2632 46.7313 35.207 46.8313 35.1071C46.9312 35.0072 46.9874 34.8716 46.9874 34.7303V20.875C46.9874 20.1684 46.7066 19.4906 46.2069 18.991C45.7073 18.4913 45.0295 18.2106 44.3229 18.2106ZM38.461 17.1448C38.461 16.8621 38.5733 16.591 38.7732 16.3911C38.9731 16.1913 39.2442 16.079 39.5268 16.079C39.8095 16.079 40.0806 16.1913 40.2805 16.3911C40.4803 16.591 40.5926 16.8621 40.5926 17.1448V20.3421C40.5926 20.6248 40.4803 20.8959 40.2805 21.0958C40.0806 21.2956 39.8095 21.4079 39.5268 21.4079C39.2442 21.4079 38.9731 21.2956 38.7732 21.0958C38.5733 20.8959 38.461 20.6248 38.461 20.3421V17.1448ZM29.9347 17.1448C29.9347 16.8621 30.047 16.591 30.2469 16.3911C30.4468 16.1913 30.7178 16.079 31.0005 16.079C31.2832 16.079 31.5543 16.1913 31.7541 16.3911C31.954 16.591 32.0663 16.8621 32.0663 17.1448V20.3421C32.0663 20.6248 31.954 20.8959 31.7541 21.0958C31.5543 21.2956 31.2832 21.4079 31.0005 21.4079C30.7178 21.4079 30.4468 21.2956 30.2469 21.0958C30.047 20.8959 29.9347 20.6248 29.9347 20.3421V17.1448ZM21.4084 17.1448C21.4084 16.8621 21.5207 16.591 21.7206 16.3911C21.9204 16.1913 22.1915 16.079 22.4742 16.079C22.7569 16.079 23.028 16.1913 23.2278 16.3911C23.4277 16.591 23.54 16.8621 23.54 17.1448V20.3421C23.54 20.6248 23.4277 20.8959 23.2278 21.0958C23.028 21.2956 22.7569 21.4079 22.4742 21.4079C22.1915 21.4079 21.9204 21.2956 21.7206 21.0958C21.5207 20.8959 21.4084 20.6248 21.4084 20.3421V17.1448ZM45.9216 24.6053H16.0795V20.875C16.0807 20.4514 16.2496 20.0455 16.5491 19.746C16.8486 19.4464 17.2545 19.2776 17.6781 19.2763H20.3426V20.3421C20.3426 20.9075 20.5672 21.4496 20.9669 21.8494C21.3667 22.2491 21.9089 22.4737 22.4742 22.4737C23.0395 22.4737 23.5817 22.2491 23.9815 21.8494C24.3812 21.4496 24.6058 20.9075 24.6058 20.3421V19.2763H28.8689V20.3421C28.8689 20.9075 29.0935 21.4496 29.4933 21.8494C29.893 22.2491 30.4352 22.4737 31.0005 22.4737C31.5658 22.4737 32.108 22.2491 32.5078 21.8494C32.9075 21.4496 33.1321 20.9075 33.1321 20.3421V19.2763H37.3953V20.3421C37.3953 20.9075 37.6198 21.4496 38.0196 21.8494C38.4193 22.2491 38.9615 22.4737 39.5268 22.4737C40.0922 22.4737 40.6343 22.2491 41.0341 21.8494C41.4338 21.4496 41.6584 20.9075 41.6584 20.3421V19.2763H44.3229C44.7465 19.2776 45.1524 19.4464 45.4519 19.746C45.7515 20.0455 45.9203 20.4514 45.9216 20.875V24.6053Z" fill="#1BA8CB"/>
<path d="M29.935 29.4013C29.935 29.1187 29.8227 28.8476 29.6229 28.6477C29.423 28.4478 29.1519 28.3355 28.8692 28.3355H26.7377C26.455 28.3355 26.1839 28.4478 25.984 28.6477C25.7842 28.8476 25.6719 29.1187 25.6719 29.4013V31C25.6719 31.2827 25.7842 31.5538 25.984 31.7536C26.1839 31.9535 26.455 32.0658 26.7377 32.0658H28.8692C29.1519 32.0658 29.423 31.9535 29.6229 31.7536C29.8227 31.5538 29.935 31.2827 29.935 31V29.4013ZM26.7377 31V29.4013H28.8692V31H26.7377Z" fill="#1BA8CB"/>
<path d="M23.5405 29.4013C23.5405 29.1187 23.4282 28.8476 23.2283 28.6477C23.0285 28.4478 22.7574 28.3355 22.4747 28.3355H20.3431C20.0605 28.3355 19.7894 28.4478 19.5895 28.6477C19.3896 28.8476 19.2773 29.1187 19.2773 29.4013V31C19.2773 31.2827 19.3896 31.5538 19.5895 31.7536C19.7894 31.9535 20.0605 32.0658 20.3431 32.0658H22.4747C22.7574 32.0658 23.0285 31.9535 23.2283 31.7536C23.4282 31.5538 23.5405 31.2827 23.5405 31V29.4013ZM20.3431 31V29.4013H22.4747V31H20.3431Z" fill="#1BA8CB"/>
<path d="M41.6583 32.0658C41.941 32.0658 42.2121 31.9535 42.4119 31.7536C42.6118 31.5538 42.7241 31.2827 42.7241 31V29.4013C42.7241 29.1187 42.6118 28.8476 42.4119 28.6477C42.2121 28.4478 41.941 28.3355 41.6583 28.3355H39.5267C39.2441 28.3355 38.973 28.4478 38.7731 28.6477C38.5732 28.8476 38.4609 29.1187 38.4609 29.4013V31C38.4609 31.2827 38.5732 31.5538 38.7731 31.7536C38.973 31.9535 39.2441 32.0658 39.5267 32.0658H41.6583ZM39.5267 29.4013H41.6583V31H39.5267V29.4013Z" fill="#1BA8CB"/>
<path d="M29.935 34.1974C29.935 33.9147 29.8227 33.6436 29.6229 33.4438C29.423 33.2439 29.1519 33.1316 28.8692 33.1316H26.7377C26.455 33.1316 26.1839 33.2439 25.984 33.4438C25.7842 33.6436 25.6719 33.9147 25.6719 34.1974V35.7961C25.6719 36.0787 25.7842 36.3498 25.984 36.5497C26.1839 36.7496 26.455 36.8619 26.7377 36.8619H28.8692C29.1519 36.8619 29.423 36.7496 29.6229 36.5497C29.8227 36.3498 29.935 36.0787 29.935 35.7961V34.1974ZM26.7377 35.7961V34.1974H28.8692V35.7961H26.7377Z" fill="#1BA8CB"/>
<path d="M23.5405 34.1974C23.5405 33.9147 23.4282 33.6436 23.2283 33.4438C23.0285 33.2439 22.7574 33.1316 22.4747 33.1316H20.3431C20.0605 33.1316 19.7894 33.2439 19.5895 33.4438C19.3896 33.6436 19.2773 33.9147 19.2773 34.1974V35.7961C19.2773 36.0787 19.3896 36.3498 19.5895 36.5497C19.7894 36.7496 20.0605 36.8619 20.3431 36.8619H22.4747C22.7574 36.8619 23.0285 36.7496 23.2283 36.5497C23.4282 36.3498 23.5405 36.0787 23.5405 35.7961V34.1974ZM20.3431 35.7961V34.1974H22.4747V35.7961H20.3431Z" fill="#1BA8CB"/>
<path d="M28.8692 37.9276H26.7377C26.455 37.9276 26.1839 38.0399 25.984 38.2398C25.7842 38.4397 25.6719 38.7108 25.6719 38.9934V40.5921C25.6719 40.8748 25.7842 41.1459 25.984 41.3457C26.1839 41.5456 26.455 41.6579 26.7377 41.6579H28.8692C29.1519 41.6579 29.423 41.5456 29.6229 41.3457C29.8227 41.1459 29.935 40.8748 29.935 40.5921V38.9934C29.935 38.7108 29.8227 38.4397 29.6229 38.2398C29.423 38.0399 29.1519 37.9276 28.8692 37.9276ZM26.7377 40.5921V38.9934H28.8692V40.5921H26.7377Z" fill="#1BA8CB"/>
<path d="M33.1322 32.0658H35.2638C35.5464 32.0658 35.8175 31.9535 36.0174 31.7536C36.2173 31.5538 36.3296 31.2827 36.3296 31V29.4013C36.3296 29.1187 36.2173 28.8476 36.0174 28.6477C35.8175 28.4478 35.5464 28.3355 35.2638 28.3355H33.1322C32.8495 28.3355 32.5784 28.4478 32.3786 28.6477C32.1787 28.8476 32.0664 29.1187 32.0664 29.4013V31C32.0664 31.2827 32.1787 31.5538 32.3786 31.7536C32.5784 31.9535 32.8495 32.0658 33.1322 32.0658ZM33.1322 29.4013H35.2638V31H33.1322V29.4013Z" fill="#1BA8CB"/>
<path d="M32.0664 35.7961C32.0664 36.0787 32.1787 36.3498 32.3786 36.5497C32.5784 36.7496 32.8495 36.8619 33.1322 36.8619C33.2735 36.8619 33.4091 36.8057 33.509 36.7058C33.6089 36.6058 33.6651 36.4703 33.6651 36.329C33.6651 36.1876 33.6089 36.0521 33.509 35.9521C33.4091 35.8522 33.2735 35.7961 33.1322 35.7961V34.1974H35.2638C35.4051 34.1974 35.5407 34.1412 35.6406 34.0413C35.7405 33.9414 35.7967 33.8058 35.7967 33.6645C35.7967 33.5232 35.7405 33.3876 35.6406 33.2877C35.5407 33.1877 35.4051 33.1316 35.2638 33.1316H33.1322C32.8495 33.1316 32.5784 33.2439 32.3786 33.4438C32.1787 33.6436 32.0664 33.9147 32.0664 34.1974V35.7961Z" fill="#1BA8CB"/>
<path d="M22.4747 37.9276H20.3431C20.0605 37.9276 19.7894 38.0399 19.5895 38.2398C19.3896 38.4397 19.2773 38.7108 19.2773 38.9934V40.5921C19.2773 40.8748 19.3896 41.1459 19.5895 41.3457C19.7894 41.5456 20.0605 41.6579 20.3431 41.6579H22.4747C22.7574 41.6579 23.0285 41.5456 23.2283 41.3457C23.4282 41.1459 23.5405 40.8748 23.5405 40.5921V38.9934C23.5405 38.7108 23.4282 38.4397 23.2283 38.2398C23.0285 38.0399 22.7574 37.9276 22.4747 37.9276ZM20.3431 40.5921V38.9934H22.4747V40.5921H20.3431Z" fill="#1BA8CB"/>
<path d="M40.0604 33.1316C38.6903 33.1316 37.3509 33.5379 36.2117 34.2991C35.0724 35.0603 34.1845 36.1423 33.6602 37.4081C33.1358 38.674 32.9986 40.0669 33.2659 41.4107C33.5332 42.7546 34.193 43.989 35.1619 44.9578C36.1307 45.9266 37.3651 46.5864 38.7089 46.8537C40.0528 47.121 41.4457 46.9839 42.7115 46.4595C43.9774 45.9352 45.0593 45.0473 45.8206 43.908C46.5818 42.7688 46.9881 41.4294 46.9881 40.0592C46.986 38.2226 46.2554 36.4617 44.9567 35.163C43.658 33.8643 41.8971 33.1337 40.0604 33.1316ZM40.0604 45.9211C38.9011 45.9211 37.7678 45.5773 36.8038 44.9332C35.8398 44.2891 35.0885 43.3736 34.6448 42.3025C34.2011 41.2313 34.0851 40.0527 34.3112 38.9156C34.5374 37.7785 35.0957 36.7341 35.9155 35.9143C36.7353 35.0945 37.7798 34.5362 38.9169 34.31C40.0539 34.0838 41.2326 34.1999 42.3037 34.6436C43.3748 35.0873 44.2903 35.8386 44.9344 36.8026C45.5785 37.7665 45.9223 38.8999 45.9223 40.0592C45.9205 41.6133 45.3023 43.1032 44.2034 44.2021C43.1045 45.3011 41.6145 45.9192 40.0604 45.9211Z" fill="#1BA8CB"/>
<path d="M43.1388 37.8253L38.9939 41.9702L37.1101 40.0859C37.0096 39.9888 36.875 39.9351 36.7353 39.9363C36.5956 39.9375 36.4619 39.9936 36.3631 40.0924C36.2643 40.1912 36.2083 40.3248 36.2071 40.4646C36.2058 40.6043 36.2595 40.7389 36.3566 40.8394L38.6172 43.1005C38.7171 43.2004 38.8526 43.2565 38.9939 43.2565C39.1352 43.2565 39.2707 43.2004 39.3707 43.1005L43.8923 38.5789C43.9894 38.4783 44.0431 38.3437 44.0419 38.204C44.0406 38.0643 43.9846 37.9306 43.8858 37.8318C43.787 37.733 43.6533 37.677 43.5136 37.6758C43.3739 37.6746 43.2393 37.7283 43.1388 37.8253Z" fill="#1BA8CB"/>
</g>
<defs>
<clipPath id="clip0_1139_238">
<rect width="36" height="36" fill="white" transform="translate(13 13)"/>
</clipPath>
</defs>
</svg>
