<svg width="62" height="62" viewBox="0 0 62 62" fill="none" xmlns="http://www.w3.org/2000/svg">
<circle cx="31" cy="31" r="31" fill="#1BA8CB" fill-opacity="0.06"/>
<g clip-path="url(#clip0_1139_259)">
<g clip-path="url(#clip1_1139_259)">
<path d="M28.625 37.1133H23.1055C22.948 37.1133 22.797 37.0507 22.6856 36.9394C22.5743 36.828 22.5117 36.677 22.5117 36.5195V31C22.5117 30.8426 22.5743 30.6915 22.6856 30.5802C22.797 30.4688 22.948 30.4063 23.1055 30.4063H28.0312V26.0743H23.1055C22.948 26.0743 22.797 26.0117 22.6856 25.9004C22.5743 25.789 22.5117 25.638 22.5117 25.4805C22.5117 25.3231 22.5743 25.172 22.6856 25.0607C22.797 24.9493 22.948 24.8868 23.1055 24.8868H28.625C28.7824 24.8868 28.9335 24.9493 29.0448 25.0607C29.1562 25.172 29.2187 25.3231 29.2187 25.4805V31C29.2187 31.1575 29.1562 31.3085 29.0448 31.4199C28.9335 31.5312 28.7824 31.5938 28.625 31.5938H23.6992V35.9258H28.625C28.7824 35.9258 28.9335 35.9883 29.0448 36.0997C29.1562 36.211 29.2187 36.3621 29.2187 36.5195C29.2187 36.677 29.1562 36.828 29.0448 36.9394C28.9335 37.0507 28.7824 37.1133 28.625 37.1133Z" fill="#1BA8CB"/>
<path d="M38.8945 31.5938H33.375C33.2175 31.5938 33.0665 31.5312 32.9552 31.4199C32.8438 31.3085 32.7812 31.1575 32.7812 31V25.4805C32.7812 25.3231 32.8438 25.172 32.9552 25.0607C33.0665 24.9493 33.2175 24.8868 33.375 24.8868C33.5325 24.8868 33.6835 24.9493 33.7948 25.0607C33.9062 25.172 33.9688 25.3231 33.9688 25.4805V30.4063H38.3008V25.4805C38.3008 25.3231 38.3633 25.172 38.4747 25.0607C38.586 24.9493 38.737 24.8868 38.8945 24.8868C39.052 24.8868 39.203 24.9493 39.3143 25.0607C39.4257 25.172 39.4883 25.3231 39.4883 25.4805V31C39.4883 31.1575 39.4257 31.3085 39.3143 31.4199C39.203 31.5312 39.052 31.5938 38.8945 31.5938Z" fill="#1BA8CB"/>
<path d="M38.8945 37.1133C38.7371 37.1133 38.586 37.0507 38.4747 36.9394C38.3633 36.828 38.3008 36.677 38.3008 36.5195V31C38.3008 30.8426 38.3633 30.6915 38.4747 30.5802C38.586 30.4688 38.7371 30.4063 38.8945 30.4063C39.052 30.4063 39.203 30.4688 39.3144 30.5802C39.4257 30.6915 39.4883 30.8426 39.4883 31V36.5195C39.4883 36.677 39.4257 36.828 39.3144 36.9394C39.203 37.0507 39.052 37.1133 38.8945 37.1133Z" fill="#1BA8CB"/>
<path d="M24.3973 19.0372C24.3418 19.0373 24.2865 19.0293 24.2334 19.0134C24.1584 18.9918 24.0885 18.9557 24.0275 18.907C23.9666 18.8584 23.9158 18.7983 23.8781 18.73C23.8403 18.6617 23.8164 18.5867 23.8077 18.5092C23.799 18.4317 23.8057 18.3533 23.8273 18.2783L24.7594 15.0365L21.609 13.71C21.5345 13.6817 21.4665 13.6386 21.409 13.5834C21.3515 13.5281 21.3057 13.4619 21.2744 13.3886C21.243 13.3153 21.2268 13.2365 21.2266 13.1568C21.2263 13.077 21.2422 12.9981 21.2731 12.9246C21.3041 12.8512 21.3495 12.7847 21.4067 12.7292C21.4639 12.6736 21.5317 12.6302 21.606 12.6014C21.6804 12.5727 21.7597 12.5591 21.8394 12.5617C21.9191 12.5643 21.9974 12.5829 22.0698 12.6163L25.7059 14.147C25.8402 14.2033 25.9491 14.307 26.0119 14.4384C26.0748 14.5698 26.0871 14.7196 26.0467 14.8595L24.9684 18.6085C24.9326 18.7322 24.8575 18.841 24.7545 18.9183C24.6515 18.9956 24.5261 19.0373 24.3973 19.0372Z" fill="#1BA8CB"/>
<path d="M30.9993 49.4312C26.702 49.4316 22.5452 47.9008 19.2745 45.1135C16.0038 42.3261 13.8333 38.4646 13.1523 34.2216C12.4713 29.9786 13.3244 25.6318 15.5585 21.9609C17.7927 18.2901 21.2617 15.5354 25.3433 14.1909C25.4181 14.1631 25.4978 14.1506 25.5776 14.1543C25.6574 14.1579 25.7356 14.1776 25.8076 14.2122C25.8796 14.2468 25.9438 14.2955 25.9965 14.3555C26.0492 14.4155 26.0893 14.4856 26.1143 14.5614C26.1393 14.6372 26.1488 14.7174 26.1421 14.7969C26.1354 14.8765 26.1128 14.9539 26.0755 15.0246C26.0382 15.0952 25.9871 15.1576 25.9251 15.208C25.8632 15.2584 25.7917 15.2958 25.715 15.3179C21.6786 16.6442 18.29 19.4425 16.2245 23.1553C14.159 26.8682 13.5681 31.2229 14.5695 35.3519C15.571 39.4809 18.0914 43.081 21.6284 45.4349C25.1654 47.7889 29.4594 48.7238 33.6549 48.0535C37.8504 47.3831 41.6393 45.1567 44.2668 41.8179C46.8943 38.479 48.1673 34.2728 47.8324 30.0373C47.4974 25.8018 45.579 21.848 42.4594 18.9636C39.3398 16.0793 35.248 14.4761 30.9993 14.4736C30.8419 14.4736 30.6908 14.411 30.5795 14.2997C30.4681 14.1883 30.4056 14.0373 30.4056 13.8798C30.4056 13.7223 30.4681 13.5713 30.5795 13.46C30.6908 13.3486 30.8419 13.2861 30.9993 13.2861C35.7925 13.2861 40.3893 15.1901 43.7786 18.5794C47.1678 21.9687 49.0719 26.5655 49.0719 31.3586C49.0719 36.1518 47.1678 40.7486 43.7786 44.1379C40.3893 47.5271 35.7925 49.4312 30.9993 49.4312Z" fill="#1BA8CB"/>
</g>
</g>
<defs>
<clipPath id="clip0_1139_259">
<rect width="38" height="38" fill="white" transform="translate(12 12)"/>
</clipPath>
<clipPath id="clip1_1139_259">
<rect width="38" height="38" fill="white" transform="translate(12 12)"/>
</clipPath>
</defs>
</svg>
